<?xml version="1.0" encoding="utf-8"?>
<!-- Generator: Adobe Illustrator 27.0.0, SVG Export Plug-In . SVG Version: 6.00 Build 0)  -->
<svg version="1.1" xmlns="http://www.w3.org/2000/svg" xmlns:xlink="http://www.w3.org/1999/xlink" x="0px" y="0px"
     viewBox="0 85 225 50"
     style="enable-background:new 0 0 0 0;width: 200px;height: auto;" xml:space="preserve">
<style type="text/css">
	.st0{display:none;}
	.st1{display:inline;fill:#A6F7C3;}
	.st2{display:inline;}
	.st3{fill:#003322;}
	.st4{display:inline;fill:#003322;}
</style>
<g id="Layer_1" class="st0">
	<g>
		<path class="st1" d="M183.9,134.74c0.36,13.05,0.69,26.11,1.08,39.16c0.2,6.69,0.5,13.37,0.73,20.06c0.08,2.3-1.3,3.83-3.63,3.96
			c-2.3,0.13-4.61,0.12-6.92,0.16c-18.88,0.33-37.75,0.65-56.63,0.99c-14.63,0.26-29.26,0.55-43.89,0.78
			c-3.64,0.06-7.29-0.02-10.94-0.1c-2.94-0.06-4.08-1.25-4.05-4.15c0.23-24.22,0.47-48.44,0.71-72.66c0.14-14.07,0.8-28.99,1-43.06
			c0.02-1.08,0.61-12.92,4.16-17.34c1.6-2.76,4.1-6.12,6.13-8.57c5.98-7.21,13.52-12.29,22.11-15.98
			c10.34-4.44,21.14-6.5,32.32-6.24c7.94,0.19,15.81,1.5,23.31,4.25c5.92,2.17,11.54,5.06,16.51,9.03
			c7,5.61,12.32,12.45,14.67,21.22c0.83,3.09,1.33,6.34,1.43,9.54c0.66,19.64,1.17,39.29,1.73,58.94
			C183.78,134.74,183.84,134.74,183.9,134.74z"/>
		<path class="st1" d="M89.62,73.23c1.37-2.98,2.3-2.99,5.17-0.14c2.02-1.24,3.12-0.84,3.88,1.5c0.35,1.09,0.56,2.22,0.93,3.72
			c2.08-1.18,4.18-2.27,6.17-3.52c1.2-0.76,2.2-0.71,3.59-0.36c4.2,1.04,4.79,4.9,6.5,7.83c1.26,2.17,2.26,4.54,3.07,6.92
			c1.64,4.82,1.86,9.64-0.68,14.32c-1.22,2.24-3.35,3.49-5.19,5.09c-5.25,4.57-11.52,7.1-18.13,8.69c-3.31,0.79-4.81-0.09-6.36-2.72
			c-3.66-6.23-7.5-12.36-11.27-18.53c-1.35-2.21-1.09-2.5,0.17-4.77c0.93-1.69,2.34-2.29,3.83-3.11c2.26-1.24,4.42-2.66,6.58-4.06
			c0.27-0.18,0.49-0.78,0.41-1.1c-0.72-2.75-1.47-5.49-2.3-8.2c-0.29-0.95-0.54-1.82,0.37-2.5c0.84-0.63,1.65-0.32,2.39,0.29
			C88.98,72.77,89.25,72.95,89.62,73.23z M81.6,93.61c0.45,0.69,0.84,1.31,1.24,1.93c3.37,5.22,6.81,10.4,10.06,15.69
			c0.78,1.26,1.45,1.39,2.63,0.87c2.4-1.06,4.84-2.03,7.22-3.14c0.52-0.24,1-0.8,1.25-1.33c0.77-1.61,1.14-3.28,1.19-5.15
			c0.07-2.66,0.04-5.23-0.75-7.78c-0.29-0.92-0.44-1.88-0.64-2.83c-0.26-1.23,0.24-2.07,1.4-2.5c0.6-0.22,1.23-0.39,1.86-0.53
			c1.82-0.41,3.64-0.8,5.62-1.24c-1.46-2.7-2.84-5.26-4.17-7.72c-2.66,1.27-5.09,2.47-7.56,3.58c-0.76,0.34-0.98,0.75-0.92,1.56
			c0.2,2.67,0.32,5.34,0.45,8.01c0.04,0.92-0.1,1.99-1.13,2.08c-0.77,0.07-1.76-0.35-2.38-0.88c-0.71-0.6-1.11-1.56-1.74-2.5
			c-0.34,0.61-0.53,1.23-0.94,1.6c-0.64,0.58-1.39,1.3-2.16,1.4c-1.06,0.14-1.5-0.88-1.71-1.83c-0.26-1.19-0.52-2.37-0.78-3.59
			C86.9,90.77,84.32,92.15,81.6,93.61z M90.77,78.25c0.66,3.42,1.31,6.83,2.02,10.48c1.71-1.85,1.94-1.89,4.16-0.82
			c-0.29-2.92-0.58-5.79-0.85-8.47c-0.85-0.23-1.67-0.24-2.15-0.65c-0.54-0.46-0.78-1.28-1.09-1.84
			C92.18,77.37,91.53,77.77,90.77,78.25z"/>
		<path class="st1" d="M155.02,138.84c0.04,0.08,0.17,0.5,0.41,0.85c1.49,2.27,2.95,4.57,4.53,6.78c1.93,2.69,3.91,5.35,6.02,7.91
			c1.61,1.95,1.56,4.13-0.49,5.57c-5.35,3.77-10.76,7.46-16.1,11.24c-3.54,2.5-6.99,5.12-10.49,7.67c-0.41,0.3-0.85,0.55-1.3,0.79
			c-1.49,0.77-2.28,0.57-3.39-0.69c-4.34-4.93-7.66-10.51-10.57-16.36c-0.27-0.54-0.55-1.07-0.85-1.58
			c-1.03-1.77-0.37-3.4,1.47-4.22c1.2-0.53,2.3-1.33,3.35-2.14c6.24-4.82,12.41-9.72,18.68-14.5c1.56-1.19,3.37-2.07,5.08-3.07
			c0.39-0.23,0.84-0.39,1.28-0.5C154.17,136.19,155.08,136.93,155.02,138.84z M151.2,140.91c-8.92,5.52-16.24,12.36-24.31,18.36
			c2.22,0.29,4.41,0.54,6.6,0.53c3.82-0.02,7.63-0.21,11.45-0.32c1.39-0.04,2.21-0.72,2.56-2.04c0.53-2,1.16-3.98,1.6-5.99
			C149.84,148.08,150.45,144.69,151.2,140.91z M150.78,157.72c-0.42,0.85-0.82,1.58-1.14,2.34c-0.63,1.55-1.68,2.42-3.42,2.55
			c-1.91,0.14-3.81,0.44-5.48,0.64c-0.87,3.99-1.74,7.97-2.67,12.25c7.6-5.6,14.88-10.95,22.32-16.43
			C157.15,158.61,154.02,158.17,150.78,157.72z M126.88,162.61c2.75,4.21,5.35,8.19,8.13,12.44c0.84-4.25,1.6-8.09,2.35-11.86
			C134.08,163.01,130.69,162.82,126.88,162.61z M162.57,156.12c-2.82-4.24-5.56-8.38-8.4-12.66c-0.82,3.77-1.61,7.38-2.45,11.25
			C155.4,155.19,158.97,155.66,162.57,156.12z"/>
		<path class="st1" d="M128.34,138.72c-4.36,0.59-7.25,3.82-10.81,5.84c-1,0.57-1.75,1.57-2.71,2.22c-1.37,0.93-2.88,0.79-4.04-0.32
			c-0.22-0.2-0.35-0.71-0.26-0.99c0.49-1.49,1.15-2.78,2.59-3.74c3.06-2.04,5.96-4.32,8.93-6.5c0.07-0.05,0.17-0.13,0.18-0.2
			c0.28-2.42,2.47-2.9,4.06-3.95c2.58-1.69,5.26-3.24,7.82-4.97c1.65-1.11,3.68-1.48,5.14-3.03c0.93-0.98,3.09-0.33,4.09,0.86
			c0.91,1.09,0.82,2.19-0.08,3.53c-0.45,0.67-0.62,1.52-0.91,2.3c-0.4,1.07-0.62,2.26-1.24,3.18c-2.13,3.17-4.91,5.56-8.7,6.58
			c-0.18,0.05-0.35,0.1-0.52,0.17C129.95,140.43,129.42,140.27,128.34,138.72z M138.15,131.21c-1.64,1.22-3.28,2.44-4.92,3.66
			C135.55,134.55,137.09,133.19,138.15,131.21z"/>
		<path class="st1" d="M132.09,117.79c0.85,1.24,1.71,2.51,2.65,3.9c-0.81,0.61-1.44,1.12-2.11,1.58
			c-6.61,4.53-13.22,9.06-19.86,13.54c-1.35,0.91-2.79,1.72-4.25,2.42c-0.95,0.45-2.07,0.54-2.62-0.66c-0.5-1.09,0.02-1.92,0.95-2.6
			c0.41-0.3,0.69-0.8,1.02-1.22c0.2-0.25,0.33-0.58,0.58-0.75c7.71-5.36,15.43-10.71,23.14-16.06
			C131.62,117.92,131.68,117.92,132.09,117.79z"/>
		<path class="st1" d="M129.18,112.78c-0.04,1.15-0.59,1.9-1.6,2.5c-7.62,4.5-15.21,9.04-22.81,13.57
			c-0.71,0.42-1.41,0.87-2.15,1.25c-1.06,0.55-2.4,0.17-2.83-0.83c-0.48-1.13,0.17-1.73,1.08-2.34c3.22-2.14,6.36-4.41,9.59-6.54
			c5.12-3.37,10.29-6.68,15.44-10C127.16,109.57,129.08,110.97,129.18,112.78z"/>
		<path class="st1" d="M113.82,183.25c-0.44,0.62-0.74,1.33-1.27,1.76c-1.54,1.24-3.16,2.38-4.77,3.53
			c-0.92,0.65-1.86,0.53-2.66-0.2c-0.95-0.87-1.78-1.87-2.72-2.74c-0.76-0.7-1.58-1.36-2.46-1.92c-1.71-1.09-1.88-3.4-0.35-4.73
			c1.53-1.33,2.95-2.77,4.49-4.09c1.18-1.01,2.1-0.89,3.11,0.26c1.89,2.14,3.77,4.29,5.62,6.46
			C113.2,182.02,113.43,182.58,113.82,183.25z M106.96,180.5c0.04-0.19,0.07-0.37,0.11-0.56c-0.56-0.65-1.12-1.3-1.78-2.07
			c-1.07,1-2.04,1.91-3.02,2.82c0.98,0.05,1.72-0.2,2.47-0.27C105.47,180.35,106.22,180.46,106.96,180.5z M109.48,183.17
			c-0.06-0.13-0.13-0.26-0.19-0.39c-1.03,0.61-2.06,1.22-3.08,1.83C107.64,184.91,108.38,183.64,109.48,183.17z"/>
		<path class="st1" d="M123.37,173.91c1.5,0.99,1.5,2-0.13,3.11c-1.22,0.83-2.37,1.76-3.59,2.59c-1.4,0.95-2.31,0.92-3.42-0.35
			c-1.7-1.94-3.27-3.99-4.88-5.99c-0.14-0.18-0.22-0.41-0.35-0.59c-1.52-2.07-1.41-2.38,0.91-3.65c1.25-0.68,2.41-1.53,3.63-2.27
			c1.64-0.99,2.55-0.9,3.77,0.51c1.2,1.39,2.37,2.83,3.43,4.34C123.11,172.14,123.12,172.93,123.37,173.91z M121,174.45
			c-0.65-0.72-1.22-1.33-1.82-1.99c-0.71,1.1-1.37,2.12-2.11,3.26c0.35,0.34,0.68,0.64,1.05,1
			C119.12,175.93,120.01,175.23,121,174.45z"/>
		<path class="st1" d="M159.36,68.34c2.31-0.06,4.44,1.4,5.29,3.52c0.16,0.4,0.6,0.7,0.96,1c0.94,0.78,2.08,1.4,2.82,2.33
			c1.03,1.29,0.82,2.82-0.14,4.11c-0.96,1.28-2.11,2.42-3.95,1.88c-1.27-0.37-2.57-0.75-3.74-1.34c-1.47-0.74-1.66-1.75-0.88-3.22
			c0.66-1.23,0.26-2.16-1.03-2.44c-1.99-0.43-2.88-1.42-2.71-3.02C156.15,69.54,157.52,68.39,159.36,68.34z"/>
		<path class="st1" d="M143.82,81.26c-0.02-3.85,2.6-6.58,6.17-6.43c2.07,0.09,3.85,1.5,4.57,3.61c0.62,1.81,0.07,3.46-1.65,4.87
			c-1.02,0.85-2.2,1.41-3,2.64c-0.87,1.32-2.92,1.13-4.31-0.09C144.22,84.66,143.87,83.01,143.82,81.26z"/>
		<path class="st1" d="M142.19,99.43c-0.15,1.29-0.35,2.41-1.73,2.8c-1.04,0.29-2.18-0.49-2.68-1.89c-0.3-0.86-0.5-1.77-0.59-2.67
			c-0.12-1.16,0.52-2.12,1.59-2.24c0.76-0.08,1.88,0.37,2.32,0.96C141.72,97.21,141.85,98.4,142.19,99.43z"/>
		<path class="st1" d="M138.67,117.42c0.01,1.31-1.32,2.81-2.54,2.87c-1.28,0.06-2.5-1.29-2.51-2.8c-0.01-1.52,1.02-2.71,2.37-2.72
			C137.36,114.76,138.66,116.04,138.67,117.42z"/>
		<path class="st1" d="M165.54,133.78c0,1.42-1.1,2.51-2.53,2.51c-1.41,0-2.55-1.12-2.54-2.52c0.01-1.41,2.14-3.74,3.54-3.73
			C165.42,130.05,165.54,132.37,165.54,133.78z"/>
		<path class="st1" d="M129.12,109.87c-0.03-0.85,1.65-2.06,2.88-2.09c0.91-0.02,1.77,0.67,1.79,1.42c0.02,0.75-1.68,2-2.81,2.07
			C130.19,111.32,129.14,110.53,129.12,109.87z"/>
		<path class="st1" d="M171.17,67.02c-0.36,0.25-0.91,0.9-1.57,1.04c-1.04,0.22-3.19-1.73-3.09-2.66c0.12-1.06,0.75-1.65,1.86-1.65
			C169.73,63.75,171.19,65.2,171.17,67.02z"/>
		<path class="st1" d="M150.26,72.22c-1.08,0.05-1.84-0.67-1.84-1.78c0-1.07,0.53-1.76,1.62-1.88c0.77-0.08,1.95,1.13,2.03,1.98
			C152.14,71.44,151.36,72.18,150.26,72.22z"/>
	</g>
	<g class="st2">
		<path class="st3" d="M167.9,123.91c0.36,13.05,0.69,26.11,1.08,39.16c0.2,6.69,0.5,13.37,0.73,20.06c0.08,2.3-1.3,3.83-3.63,3.96
			c-2.3,0.13-4.61,0.12-6.92,0.16c-18.88,0.33-37.75,0.65-56.63,0.99c-14.63,0.26-29.26,0.55-43.89,0.78
			c-3.64,0.06-7.29-0.02-10.94-0.1c-2.94-0.06-4.08-1.25-4.05-4.15c0.23-24.22,0.47-48.44,0.71-72.66c0.14-14.07,0.8-28.99,1-43.06
			c0.02-1.08,0.61-12.92,4.16-17.34c1.6-2.76,4.1-6.12,6.13-8.57c5.98-7.21,13.52-12.29,22.11-15.98
			c10.34-4.44,21.14-6.5,32.32-6.24c7.94,0.19,15.81,1.5,23.31,4.25c5.92,2.17,11.54,5.06,16.51,9.03
			c7,5.61,12.32,12.45,14.67,21.22c0.83,3.09,1.33,6.34,1.43,9.54c0.66,19.64,1.17,39.29,1.73,58.94
			C167.78,123.92,167.84,123.91,167.9,123.91z M75.74,34.68c0.71,1.52,1.27,2.88,1.99,4.15c0.33,0.57,0.93,1.1,1.54,1.39
			c2.17,1.02,4.41,1.88,6.59,2.88c2.22,1.02,2.51,2.68,0.89,4.54c-0.73,0.83-1.46,1.66-2.2,2.49c-1.53,1.71-2.75,1.55-3.88-0.43
			c-1.19-2.08-2.46-4.12-3.67-6.18c-0.39-0.66-0.8-0.91-1.57-0.51c-1.39,0.72-2.78,1.44-4.24,2.02c-4.69,1.85-8.84,4.56-12.65,7.81
			c-0.74,0.64-1.99,2.03-2.42,2.86c-0.71,1.37-2.59,5.3-2.91,6.81c-0.61,2.87-0.69,7.84-0.73,9.03c-0.18,4.75-0.23,9.5-0.26,14.25
			c-0.02,2.66,0.08,8.92,0.12,11.2c0.97,0.62,3.35,1.27,4,1.75c1.5,1.1,2.53,2.46,4.41,5.68c5.39,9.23,10.71,18.51,16.04,27.77
			c0.78,1.36,2.41,5.1,1.95,6.83c-0.39,1.45-0.96,3.02-0.96,3.02l0.88,0.34c0.26-2.1,0.96-2.93,2.48-2.96
			c1.75-0.03,3.51-0.01,5.26-0.07c4.41-0.14,7.69,1.84,9.77,5.59c0.72,1.29,1.07,3.02,0.95,4.49c-0.35,4.14-4.51,6.53-8.65,5.08
			c-1.55-0.54-2.99-1.37-4.49-2.08c0.2,1.23,0.47,2.48,0.6,3.74c0.44,4.27-1.9,8.04-5.53,8.98c-5.32,1.38-10.69-3.36-9.95-9.05
			c0.37-2.84,1.37-5.62,2.26-8.37c0.42-1.3,1.4-2.29,2.94-2.4c0.08-0.01,0.15-0.09,0.3-0.19c-0.04-0.34-0.09-0.72-0.13-1.08
			c-4.05-0.3-6.73-2.39-8.47-5.82c-4.13-8.13-8.27-16.26-12.39-24.4c-0.42-0.84-0.78-1.71-1.17-2.56c-0.31,0.27-0.37,0.47-0.37,0.67
			c-0.1,10.61-0.21,21.22-0.27,31.83c0,0.45,0.33,1.03,0.7,1.34c2.62,2.23,4.43,5.01,5.23,8.3c2.02,8.28-0.47,15.53-5.49,22.11
			c-0.3,0.39-0.82,0.8-0.82,1.21c-0.04,2.15,0.04,4.3,0.08,6.5c7.03-0.13,14-0.27,21.3-0.41c-1.12-1.27-2.06-2.33-2.99-3.4
			c-0.72-0.83-1.04-1.81-0.1-2.56c1.65-1.33,3.39-2.56,5.18-3.7c2.28-1.44,3.05-1.24,4.78,0.88c1.31,1.61,2.59,3.24,3.94,4.82
			c0.96,1.12,2.04,2.17,0.69,3.67c5.26-0.1,10.33-0.19,15.4-0.31c0.36-0.01,0.81-0.23,1.05-0.5c0.71-0.78,1.33-1.64,2.08-2.57
			c-0.85-0.49-1.64-0.95-2.43-1.41c-0.92-0.55-1.14-1.37-0.61-2.24c0.5-0.81,1.32-0.96,2.16-0.46c0.83,0.49,1.69,0.97,2.45,1.56
			c0.6,0.47,0.97,0.3,1.56-0.04c1.75-1.01,3.48-2.16,5.38-2.74c2.22-0.68,4.59-0.78,6.33,1.36c3.11-1.83,3.11-1.82,7.3-2.06
			c0.33-0.02,0.78-0.14,0.96-0.37c2.53-3.27,6.45-2.83,9.51-0.16c2.37,2.07,4.12,4.58,5.66,7.28c0.21,0.36,0.57,0.86,0.89,0.89
			c1.06,0.1,2.13,0,3.26-0.02c-2.89-4.69-5.64-9.16-8.4-13.64c-0.94-1.53-0.85-2.01,0.6-3.08c4.72-3.46,9.45-6.93,14.18-10.38
			c3.2-2.33,6.41-4.62,9.36-6.74c-0.11-1.5-0.26-2.85-0.29-4.2c-0.1-3.56-0.15-7.12-0.21-10.68c-0.34,0.39-0.43,0.78-0.55,1.17
			c-0.93,2.91-3.96,4.01-6.4,2.17c-0.99-0.75-1.88-1.83-2.41-2.95c-2.2-4.65,0.59-11.63,5.37-13.55c1.04-0.42,2.22-0.51,3.4-0.76
			c-0.03-1.74-0.07-3.52-0.1-5.15c-3.08,0.35-6.09,0.75-9.11,1.02c-0.94,0.08-2.16,0.15-2.82-0.35c-1.52-1.13-3.22-0.87-4.85-1.18
			c-1.13-0.22-2.29-0.4-3.35-0.81c-3.09-1.2-5.76-2.96-7.13-6.14c-0.68-1.56-0.89-3.29,0.44-4.52c1.2-1.11,0.74-1.84,0.11-2.93
			c-1.58-2.74-3.29-5.45-4.45-8.38c-1.44-3.66,0.28-7.57,3.79-9.38c3.25-1.67,6.62-2.66,10.17-0.69c0.57-0.76,1-1.55,1.63-2.13
			c0.93-0.88,1.89-1.8,3.01-2.37c2.31-1.17,3.82-0.56,5.28,1.58c2.29,3.34,3.51,7.06,4.35,10.97c0.49,2.29,1.3,4.52,1.97,6.78
			c0.12-0.03,0.24-0.06,0.36-0.1c0.01-0.22,0.04-0.45,0.03-0.67c-0.28-9.13-0.55-18.26-0.86-27.39c-0.03-0.85-0.82-8.12-1.63-10.8
			c-1.26-4.21-3.38-8-6.25-11.34c-2.17-2.53-4.5-4.91-7.4-6.89c0.7,2.08,1.39,3.96,1.95,5.88c0.59,2.05,0.41,2.3-1.5,3.37
			c-3.97,2.23-7.92,4.51-11.92,6.68c-0.59,0.32-1.62,0.44-2.16,0.13c-1.36-0.78-2.6-1.78-3.79-2.81c-1.7-1.48-3.28-3.11-4.98-4.61
			c-1.11-0.98-2.36-1.65-2.62-3.45c-0.2-1.44-0.33-2.07,0.96-2.87c0.61-0.38,1.25-0.69,1.89-1.04c-3.89-5.79-2.27-7.84,2.39-10.05
			c-5.35-1.98-22.51-2.41-26.7-0.64c0.22,0.41,0.42,0.81,0.65,1.2c3.9,6.59,7.93,13.1,11.65,19.78c2.96,5.32,5.78,10.71,9.37,15.65
			c1.46,2.01,2.84,4.08,4.19,6.17c0.56,0.87,0.87,1.89,0.14,2.85c-0.74,0.98-1.72,0.61-2.67,0.39c-0.07-0.02-0.15,0.06-0.29,0.13
			c0.08,0.38,0.12,0.79,0.24,1.18c0.34,1.11,0.36,2.17-0.75,2.81c-1.11,0.65-1.92-0.11-2.67-0.83c-0.68-0.66-1.32-1.36-1.76-1.82
			c-0.59,0.7-1.03,1.68-1.59,1.75c-0.69,0.09-1.67-0.38-2.19-0.93c-1.04-1.09-1.93-2.35-2.74-3.64c-3.45-5.45-6.92-10.9-10.25-16.43
			c-2.83-4.7-5.49-9.49-8.18-14.27c-1.77-3.13-3.42-6.32-5.22-9.43c-0.27-0.46-1.19-1.02-1.55-0.88
			C80.54,32.46,78.18,33.58,75.74,34.68z M136.88,33.89c-1.39,0.61-2.46,1.02-3.48,1.53c-3.07,1.56-6.12,3.18-9.19,4.73
			c-1.44,0.72-1.91,2.2-0.72,3.25c2.47,2.2,5.07,4.27,7.71,6.26c0.44,0.33,1.51,0.15,2.12-0.15c1.12-0.54,2.1-1.36,3.17-2.02
			c1.33-0.82,2.72-1.55,4.02-2.41c0.91-0.61,1.35-1.5,0.9-2.63c-0.9-2.26-1.71-4.57-2.73-6.78
			C138.35,34.95,137.5,34.48,136.88,33.89z M147.62,172.07c4.78-3.25,9.41-6.39,14.03-9.55c0.22-0.15,0.46-0.5,0.44-0.75
			c-0.1-2.19-0.26-4.37-0.41-6.75c-0.54,0.33-0.94,0.53-1.3,0.79c-4.85,3.65-9.71,7.29-14.51,11.02c-0.37,0.29-0.56,1.3-0.35,1.75
			C146.13,169.87,146.97,171.03,147.62,172.07z M51.49,170.74c4.66-7.36,4.69-17.95,0.11-21.83
			C51.56,156.16,51.52,163.25,51.49,170.74z M75.99,149.12c-1.08,2.83-1.86,5.37-1.66,8.08c0.12,1.6,1.55,2.77,2.97,2.7
			c1.19-0.06,1.88-1.1,1.86-2.93C79.11,154.08,77.81,151.68,75.99,149.12z M107.33,179.53c1.01,2.46,1.01,2.47,3.47,2.37
			c0.74-0.03,1.48,0,2.2-0.12c0.34-0.05,0.8-0.29,0.94-0.58c0.65-1.35,1.21-2.75,1.83-4.23
			C112.34,175.63,109.89,177.62,107.33,179.53z M109.13,67.95c0.77-2.69,1.43-4.98,2.06-7.27c0.07-0.27,0.06-0.64-0.07-0.88
			c-0.66-1.2-1.38-2.38-2.13-3.67c-0.87,2.46-1.7,4.81-2.63,7.46C107.07,64.71,108,66.17,109.13,67.95z M62.45,45.66
			c3.97-2,7.94-4.01,11.95-6.03c-0.49-1.01-0.94-1.95-1.42-2.93C68.76,38.96,65.58,42.29,62.45,45.66z M102.79,57.7
			c0.93-2.88,1.78-5.48,2.61-8.09c0.05-0.15-0.03-0.36-0.11-0.51c-0.56-1.02-1.14-2.02-1.91-3.37c-0.62,1.98-1.1,3.6-1.65,5.2
			c-0.32,0.92-0.78,1.8-1.3,2.96C101.03,54.85,101.84,56.17,102.79,57.7z M71.98,138.26c0.2-0.06,0.4-0.12,0.6-0.18
			c-0.17-1.09-0.05-2.33-0.55-3.23c-2.57-4.62-5.32-9.15-7.98-13.73c-1.41-2.43-2.79-4.87-4.19-7.31c-0.11,0.06-0.23,0.13-0.34,0.19
			C63.67,122.09,67.82,130.18,71.98,138.26z M93.52,29.3c-0.83,1.88-1.61,3.59-2.34,5.31c-0.25,0.57-0.71,1.3-0.54,1.75
			c0.42,1.15,1.15,2.18,1.83,3.39c1.05-2.46,2-4.69,3.02-7.08C94.93,31.73,94.27,30.6,93.52,29.3z M83.05,144.31
			c-0.09,0.17-0.18,0.33-0.27,0.5c2.29,1.47,4.58,2.94,6.89,4.39c0.25,0.16,0.62,0.19,0.93,0.21c1,0.06,1.33-0.45,1.08-1.38
			c-0.42-1.56-2.46-3.37-4.09-3.5C86.08,144.4,84.57,144.38,83.05,144.31z M97.58,49.2c0.73-2.6,1.12-5.01,2.09-7.15
			c0.85-1.89-0.18-2.85-1.23-4.38c-0.92,2.94-1.76,5.6-2.65,8.44C96.24,46.89,96.81,47.88,97.58,49.2z M117.54,181.57
			c1.52-0.03,3.03-0.03,4.52-0.11c0.26-0.02,0.65-0.36,0.73-0.62c0.4-1.4,0.71-2.82,1.05-4.24
			C120.91,176.35,118.16,178.5,117.54,181.57z M126.13,180.97c2.52-0.05,4.79-0.09,7.06-0.13c0.07-0.12,0.15-0.23,0.22-0.35
			c-1.94-1.19-3.88-2.38-6.04-3.7C126.91,178.34,126.56,179.52,126.13,180.97z M79.5,181.2c0.01-0.16,0.01-0.32,0.02-0.48
			c-0.71-0.13-1.45-0.2-2.13-0.43c-0.61-0.21-1.41-0.46-1.66-0.94c-0.24-0.46,0.05-1.25,0.23-1.86c0.14-0.47,0.46-0.9,0.69-1.34
			c-0.12-0.09-0.23-0.19-0.35-0.28c-1.11,0.62-2.22,1.24-3.41,1.91c1.21,1.51,2.32,2.92,3.48,4.28c0.17,0.2,0.68,0.32,0.93,0.23
			C78.07,181.99,78.78,181.57,79.5,181.2z M115.28,66.03c-1.72,3.56-1.84,3.51-0.12,4.67c0.58-0.81,1.16-1.61,1.78-2.48
			C116.47,67.59,115.9,66.84,115.28,66.03z M129.45,174.15c1.35,0.79,2.61,1.43,3.77,2.23c1.15,0.79,2.18,1.75,3.53,2.85
			C134.04,175.05,131.5,173.28,129.45,174.15z M83.87,45.82c-0.78-0.33-1.37-0.59-1.97-0.84c-0.06,0.08-0.12,0.16-0.18,0.24
			c0.34,0.54,0.68,1.09,1.1,1.74C83.21,46.54,83.47,46.26,83.87,45.82z"/>
		<path class="st3" d="M73.62,62.4c1.37-2.98,2.3-2.99,5.17-0.14c2.02-1.24,3.12-0.84,3.88,1.5c0.35,1.09,0.56,2.22,0.93,3.72
			c2.08-1.18,4.18-2.27,6.17-3.52c1.2-0.76,2.2-0.71,3.59-0.36c4.2,1.04,4.79,4.9,6.5,7.83c1.26,2.17,2.26,4.54,3.07,6.92
			c1.64,4.82,1.86,9.64-0.68,14.32c-1.22,2.24-3.35,3.49-5.19,5.09c-5.25,4.57-11.52,7.1-18.13,8.69c-3.31,0.79-4.81-0.09-6.36-2.72
			c-3.66-6.23-7.5-12.36-11.27-18.53c-1.35-2.21-1.09-2.5,0.17-4.77c0.93-1.69,2.34-2.29,3.83-3.11c2.26-1.24,4.42-2.66,6.58-4.06
			c0.27-0.18,0.49-0.78,0.41-1.1c-0.72-2.75-1.47-5.49-2.3-8.2c-0.29-0.95-0.54-1.82,0.37-2.5c0.84-0.63,1.65-0.32,2.39,0.29
			C72.98,61.95,73.25,62.13,73.62,62.4z M65.6,82.78c0.45,0.69,0.84,1.31,1.24,1.93c3.37,5.22,6.81,10.4,10.06,15.69
			c0.78,1.26,1.45,1.39,2.63,0.87c2.4-1.06,4.84-2.03,7.22-3.14c0.52-0.24,1-0.8,1.25-1.33c0.77-1.61,1.14-3.28,1.19-5.15
			c0.07-2.66,0.04-5.23-0.75-7.78c-0.29-0.92-0.44-1.88-0.64-2.83c-0.26-1.23,0.24-2.07,1.4-2.5c0.6-0.22,1.23-0.39,1.86-0.53
			c1.82-0.41,3.64-0.8,5.62-1.24c-1.46-2.7-2.84-5.26-4.17-7.72c-2.66,1.27-5.09,2.47-7.56,3.58c-0.76,0.34-0.98,0.75-0.92,1.56
			c0.2,2.67,0.32,5.34,0.45,8.01c0.04,0.92-0.1,1.99-1.13,2.08c-0.77,0.07-1.76-0.35-2.38-0.88c-0.71-0.6-1.11-1.56-1.74-2.5
			c-0.34,0.61-0.53,1.23-0.94,1.6c-0.64,0.58-1.39,1.3-2.16,1.4c-1.06,0.14-1.5-0.88-1.71-1.83c-0.26-1.19-0.52-2.37-0.78-3.59
			C70.9,79.94,68.32,81.32,65.6,82.78z M74.77,67.43c0.66,3.42,1.31,6.83,2.02,10.48c1.71-1.85,1.94-1.89,4.16-0.82
			c-0.29-2.92-0.58-5.79-0.85-8.47c-0.85-0.23-1.67-0.24-2.15-0.65c-0.54-0.46-0.78-1.28-1.09-1.84
			C76.18,66.54,75.53,66.95,74.77,67.43z"/>
		<path class="st3" d="M139.02,128.01c0.04,0.08,0.17,0.5,0.41,0.85c1.49,2.27,2.95,4.57,4.53,6.78c1.93,2.69,3.91,5.35,6.02,7.91
			c1.61,1.95,1.56,4.13-0.49,5.57c-5.35,3.77-10.76,7.46-16.1,11.24c-3.54,2.5-6.99,5.12-10.49,7.67c-0.41,0.3-0.85,0.55-1.3,0.79
			c-1.49,0.77-2.28,0.57-3.39-0.69c-4.34-4.93-7.66-10.51-10.57-16.36c-0.27-0.54-0.55-1.07-0.85-1.58
			c-1.03-1.77-0.37-3.4,1.47-4.22c1.2-0.53,2.3-1.33,3.35-2.14c6.24-4.82,12.41-9.72,18.68-14.5c1.56-1.19,3.37-2.07,5.08-3.07
			c0.39-0.23,0.84-0.39,1.28-0.5C138.17,125.36,139.08,126.1,139.02,128.01z M135.2,130.08c-8.92,5.52-16.24,12.36-24.31,18.36
			c2.22,0.29,4.41,0.54,6.6,0.53c3.82-0.02,7.63-0.21,11.45-0.32c1.39-0.04,2.21-0.72,2.56-2.04c0.53-2,1.16-3.98,1.6-5.99
			C133.83,137.25,134.45,133.87,135.2,130.08z M134.77,146.89c-0.42,0.85-0.82,1.58-1.14,2.34c-0.63,1.55-1.68,2.42-3.42,2.55
			c-1.91,0.14-3.81,0.44-5.48,0.64c-0.87,3.99-1.74,7.97-2.67,12.25c7.6-5.6,14.88-10.95,22.32-16.43
			C141.15,147.79,138.02,147.35,134.77,146.89z M110.88,151.78c2.75,4.21,5.35,8.19,8.13,12.44c0.84-4.25,1.6-8.09,2.35-11.86
			C118.08,152.18,114.69,151.99,110.88,151.78z M146.57,145.3c-2.82-4.24-5.56-8.38-8.4-12.66c-0.82,3.77-1.61,7.38-2.45,11.25
			C139.4,144.37,142.97,144.83,146.57,145.3z"/>
		<path class="st3" d="M112.34,127.89c-4.36,0.59-7.25,3.82-10.81,5.84c-1,0.57-1.75,1.57-2.71,2.22c-1.37,0.93-2.88,0.79-4.04-0.32
			c-0.22-0.2-0.35-0.71-0.26-0.99c0.49-1.49,1.15-2.78,2.59-3.74c3.06-2.04,5.96-4.32,8.93-6.5c0.07-0.05,0.17-0.13,0.18-0.2
			c0.28-2.42,2.47-2.9,4.06-3.95c2.58-1.69,5.26-3.24,7.82-4.97c1.65-1.11,3.68-1.48,5.14-3.03c0.93-0.98,3.09-0.33,4.09,0.86
			c0.91,1.09,0.82,2.19-0.08,3.53c-0.45,0.67-0.62,1.52-0.91,2.3c-0.4,1.07-0.62,2.26-1.24,3.18c-2.13,3.17-4.91,5.56-8.7,6.58
			c-0.18,0.05-0.35,0.1-0.52,0.17C113.95,129.6,113.42,129.44,112.34,127.89z M122.15,120.38c-1.64,1.22-3.28,2.44-4.92,3.66
			C119.55,123.72,121.09,122.37,122.15,120.38z"/>
		<path class="st3" d="M116.09,106.96c0.85,1.24,1.71,2.51,2.65,3.9c-0.81,0.61-1.44,1.12-2.11,1.58
			c-6.61,4.53-13.22,9.06-19.86,13.54c-1.35,0.91-2.79,1.72-4.25,2.42c-0.95,0.45-2.07,0.54-2.62-0.66c-0.5-1.09,0.02-1.92,0.95-2.6
			c0.41-0.3,0.69-0.8,1.02-1.22c0.2-0.25,0.33-0.58,0.58-0.75c7.71-5.36,15.43-10.71,23.14-16.06
			C115.62,107.09,115.67,107.09,116.09,106.96z"/>
		<path class="st3" d="M113.17,101.95c-0.04,1.15-0.59,1.9-1.6,2.5c-7.62,4.5-15.21,9.04-22.81,13.57
			c-0.71,0.42-1.41,0.87-2.15,1.25c-1.06,0.55-2.4,0.17-2.83-0.83c-0.48-1.13,0.17-1.73,1.08-2.34c3.22-2.14,6.36-4.41,9.59-6.54
			c5.12-3.37,10.29-6.68,15.44-10C111.16,98.74,113.08,100.14,113.17,101.95z"/>
		<path class="st3" d="M97.82,172.42c-0.44,0.62-0.74,1.33-1.27,1.76c-1.54,1.24-3.16,2.38-4.77,3.53c-0.92,0.65-1.86,0.53-2.66-0.2
			c-0.95-0.87-1.78-1.87-2.72-2.74c-0.76-0.7-1.58-1.36-2.46-1.92c-1.71-1.09-1.88-3.4-0.35-4.73c1.53-1.33,2.95-2.77,4.49-4.09
			c1.18-1.01,2.1-0.89,3.11,0.26c1.89,2.14,3.77,4.29,5.62,6.46C97.2,171.19,97.43,171.75,97.82,172.42z M90.95,169.67
			c0.04-0.19,0.07-0.37,0.11-0.56c-0.56-0.65-1.12-1.3-1.78-2.07c-1.07,1-2.04,1.91-3.02,2.82c0.98,0.05,1.72-0.2,2.47-0.27
			C89.47,169.52,90.21,169.64,90.95,169.67z M93.48,172.34c-0.06-0.13-0.13-0.26-0.19-0.39c-1.03,0.61-2.06,1.22-3.08,1.83
			C91.64,174.09,92.38,172.82,93.48,172.34z"/>
		<path class="st3" d="M107.37,163.08c1.5,0.99,1.5,2-0.13,3.11c-1.22,0.83-2.37,1.76-3.59,2.59c-1.4,0.95-2.31,0.92-3.42-0.35
			c-1.7-1.94-3.27-3.99-4.88-5.99c-0.14-0.18-0.22-0.41-0.35-0.59c-1.52-2.07-1.41-2.38,0.91-3.65c1.25-0.68,2.41-1.53,3.63-2.27
			c1.64-0.99,2.55-0.9,3.77,0.51c1.2,1.39,2.37,2.83,3.43,4.34C107.11,161.31,107.12,162.11,107.37,163.08z M105,163.62
			c-0.65-0.72-1.22-1.33-1.82-1.99c-0.71,1.1-1.37,2.12-2.11,3.26c0.35,0.34,0.68,0.64,1.05,1C103.12,165.1,104.01,164.4,105,163.62
			z"/>
		<path class="st3" d="M143.36,57.52c2.31-0.06,4.44,1.4,5.29,3.52c0.16,0.4,0.6,0.7,0.96,1c0.94,0.78,2.08,1.4,2.82,2.33
			c1.03,1.29,0.82,2.82-0.14,4.11c-0.96,1.28-2.11,2.42-3.95,1.88c-1.27-0.37-2.57-0.75-3.74-1.34c-1.47-0.74-1.66-1.75-0.88-3.22
			c0.66-1.23,0.26-2.16-1.03-2.44c-1.99-0.43-2.88-1.42-2.71-3.02C140.15,58.71,141.52,57.57,143.36,57.52z"/>
		<path class="st3" d="M127.82,70.44c-0.02-3.85,2.6-6.58,6.17-6.43c2.07,0.09,3.85,1.5,4.57,3.61c0.62,1.81,0.07,3.46-1.65,4.87
			c-1.02,0.85-2.2,1.41-3,2.64c-0.87,1.32-2.92,1.13-4.31-0.09C128.22,73.83,127.87,72.18,127.82,70.44z"/>
		<path class="st3" d="M126.19,88.6c-0.15,1.29-0.35,2.41-1.73,2.8c-1.04,0.29-2.18-0.49-2.68-1.89c-0.3-0.86-0.5-1.77-0.59-2.67
			c-0.12-1.16,0.52-2.12,1.59-2.24c0.76-0.08,1.88,0.37,2.32,0.96C125.72,86.39,125.85,87.57,126.19,88.6z"/>
		<path class="st3" d="M122.67,106.59c0.01,1.31-1.32,2.81-2.54,2.87c-1.28,0.06-2.5-1.29-2.51-2.8c-0.01-1.52,1.02-2.71,2.37-2.72
			C121.36,103.93,122.66,105.22,122.67,106.59z"/>
		<path class="st3" d="M149.54,122.95c0,1.42-1.1,2.51-2.53,2.51c-1.41,0-2.55-1.12-2.54-2.52c0.01-1.41,2.14-3.74,3.54-3.73
			C149.42,119.22,149.54,121.54,149.54,122.95z"/>
		<path class="st3" d="M113.12,99.05c-0.03-0.85,1.65-2.06,2.88-2.09c0.91-0.02,1.77,0.67,1.79,1.42c0.02,0.75-1.68,2-2.81,2.07
			C114.19,100.49,113.14,99.71,113.12,99.05z"/>
		<path class="st3" d="M155.17,56.19c-0.36,0.25-0.91,0.9-1.57,1.04c-1.04,0.22-3.19-1.73-3.09-2.66c0.12-1.06,0.75-1.65,1.86-1.65
			C153.72,52.93,155.19,54.38,155.17,56.19z"/>
		<path class="st3" d="M134.25,61.4c-1.08,0.05-1.84-0.67-1.84-1.78c0-1.07,0.53-1.76,1.62-1.88c0.77-0.08,1.95,1.13,2.03,1.98
			C136.14,60.62,135.35,61.35,134.25,61.4z"/>
	</g>
</g>
<g id="Layer_2" class="st0">
	<path class="st1" d="M108,75.83c-28.49,0-51.58,23.09-51.58,51.58h103.15C159.58,98.92,136.49,75.83,108,75.83z"/>
	<path class="st4" d="M196.82,133.06c-3.59-0.78-6.62-3.13-8.44-6.29c0.67-0.96,1.31-1.92,1.8-2.95c0.69-1.46,0.93-3.43-0.25-4.72
		c-1-1.1-2.92-1.35-3.96-0.17c-1.12,1.27-0.7,3.4-0.35,4.9c0.23,0.96,0.57,1.9,1,2.79c-0.89,1.35-1.75,2.73-2.51,4.17
		c-0.17,0.33-0.35,0.67-0.52,1.02c-0.03-0.05-0.06-0.11-0.1-0.16c-0.68-1.16-1.37-2.33-1.94-3.55c0.6-0.79,1.14-1.63,1.43-2.54
		c0.47-1.47,0.26-3.6-1.5-4.09c-1.58-0.44-2.66,1.06-2.62,2.49c0.03,1.34,0.44,2.68,0.97,3.94c-0.42,0.54-0.84,1.08-1.27,1.61
		c-1.93-2.01-5.39-2.62-7.99-3.05c-1.57-0.26-3.16-0.43-4.75-0.44c-0.41,0-0.81,0-1.22,0c-0.17-0.11-0.35-0.24-0.51-0.4
		c-0.66-0.68-0.99-1.71-0.96-3.07c0.02-0.91-0.89-0.93-1.5-0.94c-0.24,0-0.48-0.01-0.69-0.05l-0.01-0.22
		c-0.01-0.23-0.03-0.47-0.05-0.7l-0.02-0.19c-0.06-0.59-0.12-1.2-0.35-1.79c-0.01-0.04-0.02-0.08-0.02-0.13
		c0.02-0.9,0.2-1.53,0.6-2.07c0.14-0.19,0.29-0.32,0.48-0.39c0.18-0.07,0.36-0.15,0.54-0.22l0.26-0.11c0.31-0.13,0.54-0.35,0.7-0.67
		c0.1-0.19,0.22-0.38,0.37-0.59c0.1-0.15,0.21-0.29,0.32-0.44l0.15-0.21c0.05-0.07,0.07-0.16,0.05-0.24
		c-0.02-0.08-0.07-0.16-0.14-0.2l-0.44-0.26l0.54-0.87c0.04-0.07,0.06-0.16,0.04-0.24c-0.02-0.08-0.07-0.15-0.15-0.19l-2.82-1.53
		c-0.14-0.08-0.32-0.03-0.4,0.11l-0.6,1c-0.19-0.21-0.31-0.43-0.34-0.69c-0.02-0.16-0.05-0.32-0.08-0.49
		c-0.03-0.13-0.05-0.25-0.07-0.38c-0.1-0.81-0.53-1.34-1.27-1.6c-0.23-0.08-0.45-0.2-0.69-0.33l-0.18-0.1
		c-0.06-0.03-0.09-0.08-0.09-0.15c0-0.07-0.01-0.14-0.02-0.21c-0.01-0.1-0.02-0.2-0.01-0.3c0-0.01,0.01-0.06,0.07-0.16
		c0.05-0.08,0.1-0.15,0.15-0.22c0.06-0.09,0.12-0.17,0.18-0.26c0.35-0.57,0.29-0.86-0.26-1.22c-0.01-0.15-0.01-0.3-0.01-0.44
		c0-0.03,0.05-0.1,0.03-0.11l0.38,0.01c0.25,0.01,0.51,0.02,0.76,0.02c0.24,0,0.49,0,0.74,0l0.34,0c0.15,0,0.28-0.11,0.3-0.26
		c0.02-0.15-0.07-0.29-0.22-0.33l-0.59-0.16c-0.47-0.13-0.94-0.26-1.41-0.39l1.77-0.47c0.13-0.03,0.22-0.15,0.22-0.28
		c0.01-0.13-0.08-0.25-0.2-0.3c-0.14-0.05-0.26-0.04-0.35-0.04l-0.54,0.02c-0.49,0.02-0.98,0.04-1.47,0.07l0.14-0.22
		c0.24-0.37,0.48-0.74,0.71-1.1c0.05-0.08,0.07-0.17,0.08-0.24c0.02-0.11-0.04-0.21-0.12-0.28c-0.08-0.07-0.22-0.09-0.32-0.05
		c-0.05,0.02-0.13,0.05-0.2,0.12c-0.34,0.34-0.67,0.69-1,1.03c-0.08,0.08-0.16,0.16-0.13,0.17c-0.03-0.01-0.13-0.05-0.26-0.13
		c-0.07-0.56-0.15-1.11-0.23-1.67l-0.09-0.64c-0.02-0.13-0.12-0.23-0.24-0.26c-0.13-0.02-0.26,0.04-0.32,0.15
		c-0.05,0.09-0.08,0.18-0.09,0.27l-0.05,0.52c-0.05,0.46-0.09,0.91-0.12,1.37c-0.01,0.24-0.06,0.28-0.29,0.33
		c-0.39-0.29-0.79-0.58-1.18-0.87l-0.44-0.32c-0.09-0.07-0.27-0.05-0.38,0.01c-0.13,0.07-0.17,0.27-0.12,0.4
		c0.02,0.05,0.04,0.13,0.11,0.2c0.17,0.19,0.35,0.38,0.52,0.57l0.67,0.73c-0.21-0.05-0.42-0.1-0.63-0.14l-0.34-0.07
		c-0.1-0.02-0.21-0.05-0.32-0.07c0.01-0.5-0.08-1.01-0.27-1.55c-0.09-0.25-0.17-0.5-0.2-0.75c-0.04-0.39-0.07-0.78-0.09-1.17
		l-0.04-0.58c-0.02-0.25,0-0.44,0.07-0.62c0.17-0.44,0.22-0.85,0.16-1.25c-0.03-0.21,0.01-0.43,0.12-0.66
		c0.1-0.2,0.19-0.4,0.28-0.61l0.05-0.12c0.03-0.06,0.07-0.16,0.07-0.27l0-0.19c0-0.25-0.01-0.5-0.03-0.75
		c-0.05-0.48-0.26-0.64-0.59-0.69c0-0.05,0-0.1,0-0.14c0.03-0.42-0.13-0.8-0.49-1.16c-0.05-0.05-0.22-0.2-0.44-0.2
		c-0.2,0-0.41,0.02-0.62,0.06c-0.32,0.06-0.52,0.32-0.53,0.66c0,0.19,0,0.38,0.05,0.53c-0.09,0.07-0.18,0.14-0.26,0.21
		c-0.1,0.08-0.21,0.17-0.32,0.24c-0.24,0.17-0.43,0.39-0.58,0.68c-0.29,0.56-0.24,0.8,0.29,1.25c0.38,0.38,0.44,0.61,0.28,0.91
		c0,0.01-0.03,0.08-0.04,0.08c-0.16,0.34-0.15,0.68,0.05,1l0.2,0.32c0.11,0.18,0.22,0.35,0.36,0.59c-0.01,0.19-0.02,0.37-0.03,0.56
		c-0.01,0.15-0.02,0.3-0.02,0.45l-0.02,0.42c-0.03,0.59-0.06,1.19,0.03,1.8c0.13,0.95,0.26,1.89,0.38,2.83
		c0,0.01-0.01,0.04-0.02,0.07c-0.11,0.22-0.23,0.44-0.34,0.65c-0.17,0.32-0.34,0.64-0.49,0.96c-0.15,0.3-0.15,0.64-0.01,0.98
		c0.14,0.32,0.29,0.63,0.45,0.94c0.13,0.25,0.26,0.49,0.39,0.74c0.1,0.19,0.21,0.39,0.31,0.58c0.17,0.34,0.22,0.66,0.14,0.98
		c-0.13,0.52-0.03,1.01,0.3,1.42c0.02,0.03,0.04,0.06,0.06,0.09c0.03,0.05,0.06,0.09,0.09,0.14c0.15,0.21,0.16,0.4,0.03,0.64
		c-0.1,0.19-0.2,0.39-0.29,0.58l-0.14,0.28c-0.16,0.32-0.19,0.67-0.1,1.01l0.07,0.25c0.07,0.25,0.13,0.5,0.21,0.75
		c0.14,0.48,0.24,0.9,0.03,1.32c-0.33,0.65-0.34,1.32-0.05,2.02c0.1,0.24,0.11,0.5,0.01,0.82c-0.13,0.42-0.26,0.84-0.4,1.26
		c-0.1,0.29-0.2,0.63-0.22,0.99c-1.05-0.36-2.52-0.9-2.54-1.23c0-2.07-0.64-9.99-0.66-10.32c-0.01-0.14-0.12-0.26-0.26-0.27
		l-2.26-0.27c-0.14-0.01-0.26,0.06-0.31,0.18l-0.77,1.72c-0.02,0.04-0.03,0.08-0.03,0.12c0,0-0.01,2.14-0.01,3.58l-2-0.56
		c-0.15-0.04-0.32,0.04-0.37,0.2l-0.28,0.89c0-0.32,0.01-0.63-0.01-0.95c-0.16-4.06-0.32-8.12-0.5-12.18
		c-0.01-0.35-0.09-0.64-0.23-0.84c-0.63-0.92-1.28-1.82-1.94-2.74l-0.62-0.86c-0.05-0.07-0.13-0.12-0.22-0.13
		c-0.1,0-0.18,0.03-0.24,0.09c-2.66,2.83-2.97,3.57-2.97,7.15l0,0.16c0,0.1,0.01,0.2,0,0.3l-0.57,6.58l-1.18,0.1
		c-0.12,0.01-0.21,0.08-0.26,0.19l-0.2,0.54c-0.14,0.38-0.27,0.73-0.42,1.07c-0.05,0.11-0.13,0.22-0.21,0.34
		c-0.1,0.14-0.21,0.29-0.28,0.45l-0.97-28.41c0-0.08-0.03-0.15-0.09-0.2l-0.55-0.55c-0.34-0.34-0.62-0.63-0.91-0.9
		c-0.16-0.15-0.33-0.29-0.49-0.44c-0.26-0.22-0.5-0.43-0.71-0.66c-0.19-0.21-0.54-0.6-0.55-0.88c-0.04-0.97-0.04-1.97-0.04-2.93
		c0-0.7,0-1.4-0.01-2.1c-0.01-0.26-0.15-0.47-0.27-0.66c-0.04-0.07-0.09-0.14-0.13-0.21c-0.05-0.09-0.14-0.15-0.24-0.16
		c-0.11-0.01-0.2,0.04-0.27,0.12c-0.05,0.07-0.11,0.13-0.18,0.2c-0.18,0.19-0.38,0.41-0.39,0.69c-0.04,0.78-0.03,1.58-0.03,2.35
		c0,0.38,0,0.76,0,1.14c0,0.19,0,0.37,0.01,0.56c0.03,1.04,0.06,1.86-1.13,2.33c-0.36,0.14-0.59,0.5-0.8,0.84
		c-0.17,0.26-0.34,0.53-0.52,0.6c-0.87,0.33-0.89,0.88-0.9,1.43c-0.1,3.23-0.21,6.47-0.31,9.71l-0.54,16.44
		c-0.01,0.39-0.02,0.76-0.21,0.93c-0.09,0.08-0.22,0.12-0.4,0.13v-6.92c0-0.17-0.13-0.3-0.3-0.3h-6.94c-0.17,0-0.3,0.13-0.3,0.3
		v4.77l-1.97,0.12c-0.15,0.01-0.27,0.13-0.28,0.28l-0.14,2.2h-2.79c-0.17,0-0.3,0.13-0.3,0.3c0,0.37,0,0.74-0.01,1.09
		c-0.01,0.81-0.01,1.58,0.02,2.36c0.02,0.46-0.08,0.57-0.12,0.6c-0.03,0.02-0.15,0.07-0.49-0.04v-10.54c0-0.16-0.12-0.29-0.28-0.3
		c-1.27-0.1-1.96-0.92-2.7-1.79c-0.51-0.6-1.03-1.22-1.75-1.59c-0.1-0.05-0.22-0.04-0.31,0.02c-0.6,0.41-1.08,0.96-1.55,1.49
		c-0.79,0.9-1.54,1.75-2.85,1.94c-0.15,0.02-0.26,0.15-0.26,0.3v2.86l-1.87-0.58c-0.15-0.05-0.31,0.03-0.37,0.18
		c-0.23,0.59-0.19,1.18-0.15,1.76c0.03,0.43,0.05,0.84-0.03,1.21c-0.26-0.6-0.68-1.6-1.04-2.46c-0.81-1.94-1.12-2.7-1.3-3
		c0-2.48-0.04-2.81-0.07-3.15c-0.04-0.33-0.07-0.67-0.07-3.35c0-0.16-0.12-0.29-0.28-0.3c-2.3-0.13-2.96-0.01-2.99,0
		c-0.13,0.02-0.22,0.13-0.24,0.26l-0.28,2.21c-0.78,0.14-1.12,0.26-1.29,0.36l-1.73,0.11c-0.13,0.01-0.23,0.09-0.27,0.21l-1.25,4.11
		l-1.17,0.12c-0.15,0.02-0.27,0.15-0.27,0.3l0,1.17c0.01,1.08,0.01,2.1-0.02,3.14c0,0.09-0.04,0.19-0.1,0.3
		c-0.05-0.11-0.09-0.22-0.1-0.3c-0.01-1.44-0.01-2.88-0.01-4.31c0-2.12,0.01-4.32-0.04-6.48c0-0.22,0-0.44,0-0.65
		c0-1.02,0.01-2.07-0.51-3.21c-0.44-0.97-0.53-2.11-0.62-3.31c-0.04-0.55-0.08-1.12-0.16-1.67c-0.02-0.16,0-0.35,0.02-0.55
		c0.06-0.55,0.14-1.37-0.9-1.68c-0.01-0.09-0.02-0.21-0.03-0.3c-0.01-0.14-0.02-0.27-0.04-0.38c-0.02-0.11-0.04-0.22-0.06-0.34
		l-0.03-0.15c-0.02-0.13-0.13-0.23-0.26-0.24l-0.88-0.12c-0.02-0.08-0.03-0.15-0.05-0.23c-0.06-0.27-0.12-0.52-0.15-0.78
		c-0.12-1.07-0.23-2.14-0.35-3.2c-0.21-1.98-0.42-3.96-0.65-5.94c-0.03-0.27-0.2-0.49-0.35-0.68c-0.06-0.07-0.11-0.14-0.16-0.21
		c-0.05-0.09-0.15-0.14-0.25-0.14c-0.08,0-0.2,0.06-0.26,0.15c-0.04,0.07-0.1,0.15-0.15,0.22c-0.13,0.19-0.28,0.4-0.34,0.65
		c-0.05,0.23-0.04,0.46-0.03,0.69c0.01,0.14,0.02,0.28,0,0.42c-0.26,2.45-0.54,4.9-0.8,7.32l-0.18,1.66l-1.15,0.26
		c-0.11,0.03-0.2,0.11-0.23,0.22c-0.03,0.11,0.01,0.23,0.1,0.3l0.03,0.02l-0.86,1.52c-0.27,0.68-0.36,1.37-0.46,2.1
		c-0.07,0.49-0.14,1-0.26,1.51c-0.38,1.51-0.78,3.29-0.83,5.02c-0.09,3.28-0.05,6.62-0.02,9.84l0,0.36
		c0.01,0.84-0.19,1.18-0.79,1.34c-1.09,0.31-1.21,1.14-1.19,1.82c0.05,2.35,0.04,4.67,0,7.42c0,0.09-0.03,0.19-0.08,0.29
		c-0.05-0.11-0.08-0.21-0.09-0.3c-0.04-0.41-0.03-0.81-0.02-1.25c0-0.26,0.01-0.51,0-0.77l0-0.09c0-0.26-0.01-0.57-0.19-0.79
		c-0.88-0.98-1.28-2.11-1.23-3.43c0.06-1.79,0.11-3.54-0.01-5.31c-0.03-0.45-0.01-0.91,0.02-1.39c0.07-1.2,0.14-2.44-0.73-3.67
		c-0.22-0.31-0.25-0.77-0.29-1.31c-0.04-0.53-0.08-1.13-0.33-1.69c-0.37-0.83-0.43-1.84-0.49-2.82c-0.02-0.35-0.04-0.7-0.08-1.04
		c-0.14-1.35-0.24-2.69-0.35-4.04l-0.13-1.62c-0.02-0.25-0.04-0.51-0.06-0.76l-0.02-0.32c-0.01-0.16-0.14-0.28-0.3-0.28l-0.32,0
		c-0.16,0-0.29,0.12-0.3,0.28l-0.02,0.38c-0.01,0.27-0.03,0.55-0.05,0.82l-0.12,1.42c-0.12,1.39-0.24,2.83-0.39,4.24
		c-0.06,0.53-0.17,1.07-0.27,1.59c-0.07,0.36-0.15,0.72-0.2,1.08c-0.13,0.83-0.26,1.67-0.38,2.51c-0.1,0.64-0.19,1.27-0.29,1.91
		c0,0.02-0.01,0.05-0.02,0.07c-0.88,0.19-0.79,0.91-0.74,1.31c0.01,0.1,0.02,0.19,0.02,0.28c-0.02,1.86-0.01,3.71-0.01,5.57
		c0,1.22,0,2.44,0,3.66c0,0.33-0.02,0.66-0.14,0.9c-0.33,0.68-0.69,1.33-1.1,2.08l-0.42,0.78c-0.55-0.19-1.02-1.29-1.17-1.74
		c-0.25-8.34-0.93-8.38-1.22-8.39c-0.28-0.01-0.55,0-0.84,0.02c-0.44,0.03-0.89,0.05-1.47-0.02c-0.09-0.01-0.17,0.02-0.24,0.07
		c-0.07,0.06-0.1,0.14-0.1,0.23c0,0.71-0.85,13.12-0.93,13.55c-0.16,0.79-1.28,1.35-2.35,1.71c-2.35,0.04-4.69,0.18-7.04,0.61
		c-2.33,0.43-5.49,1.01-7.24,2.82c-0.43-0.53-0.87-1.06-1.29-1.6c0.58-1.35,1.06-2.84,0.97-4.26c-0.09-1.44-1.37-2.71-2.84-2.11
		c-1.7,0.69-1.73,2.88-1.15,4.34c0.32,0.79,0.79,1.52,1.32,2.22c-0.59,1.26-1.3,2.46-2,3.65c-0.9-1.78-1.98-3.48-3.08-5.12
		c0.48-1,0.86-2.04,1.08-3.12c0.31-1.49,0.66-3.58-0.59-4.75c-1.12-1.05-3.01-0.66-3.91,0.49c-1.13,1.46-0.76,3.42,0.05,4.93
		c0.48,0.89,1.04,1.74,1.62,2.59c-1.81,3.17-4.85,5.52-8.44,6.3c-0.93,0.2-0.54,1.63,0.39,1.43c3.59-0.78,6.7-3,8.75-6.03
		c0.08-0.11,0.14-0.24,0.22-0.35c0.44,0.65,0.87,1.3,1.26,1.97c0.6,1.04,1.19,2.13,1.71,3.24c-0.8,1.37-1.6,2.87-1.79,4.38
		c-0.19,1.54,0.82,3.43,2.61,3.13c1.92-0.32,2.34-2.47,1.98-4.08c-0.26-1.16-0.64-2.28-1.11-3.37c0.76-1.33,1.56-2.63,2.25-4
		c0.12,0.15,0.25,0.31,0.37,0.46c0.22,0.28,0.49,0.58,0.76,0.89c-0.43,0.89-0.69,1.96-0.72,2.83c-0.04,1.15,0.82,3.09,2.24,2.88
		c1.4-0.21,2.12-1.99,1.81-3.24c-0.23-0.92-0.89-1.76-1.52-2.52c1.43-1.75,4.72-2.2,6.69-2.57c1.66-0.31,3.36-0.54,5.05-0.57
		c1.23-0.02,2.47,0,3.7,0c6.69,0,13.38,0.01,20.06,0.01c9.94,0.01,19.87,0.01,29.81,0.02c10.32,0.01,20.64,0.01,30.96,0.02
		c7.85,0,15.69,0.01,23.54,0.01c4.16,0,8.44-0.25,12.55,0.49c2.12,0.38,5.36,0.88,6.85,2.74c-0.66,0.81-1.38,1.71-1.55,2.72
		c-0.2,1.23,0.61,3.04,2.05,3.03c1.45,0,2.14-2.03,2-3.21c-0.09-0.8-0.33-1.7-0.71-2.51c0.35-0.4,0.69-0.78,0.98-1.15
		c0.05-0.07,0.11-0.14,0.17-0.21c0.03,0.06,0.05,0.11,0.08,0.17c0.68,1.32,1.46,2.58,2.2,3.87c-0.55,1.22-1.01,2.49-1.22,3.76
		c-0.26,1.58,0.5,3.71,2.42,3.68c1.79-0.03,2.49-1.95,2.2-3.46c-0.26-1.4-0.96-2.76-1.71-4.04c0.57-1.24,1.21-2.46,1.9-3.63
		c0.32-0.55,0.68-1.09,1.05-1.62c0.13,0.21,0.26,0.43,0.41,0.63c2.06,2.89,5.08,5,8.56,5.76
		C197.35,134.69,197.75,133.26,196.82,133.06z M26.74,121.05c0.16-1.35,2.13-2.42,2.47-0.54c0.26,1.43-0.19,3.12-0.79,4.55
		c-0.16-0.24-0.33-0.49-0.49-0.73C27.27,123.36,26.6,122.27,26.74,121.05z M32.77,138.74c-0.24,0.37-0.79,0.6-1.21,0.32
		c-0.41-0.27-0.38-0.88-0.35-1.29c0.07-0.96,0.58-1.92,1.05-2.8c0.2,0.54,0.38,1.08,0.53,1.63
		C32.96,137.27,33.18,138.11,32.77,138.74z M34.75,125.71c-0.26-0.47-0.46-0.97-0.49-1.52c-0.01-0.24-0.01-0.6,0.07-0.84
		c0.12-0.32,0.64-0.73,1.03-0.47c0.8,0.53,0.01,2.66-0.22,3.35c-0.01,0.02-0.02,0.05-0.03,0.07C35,126.11,34.86,125.92,34.75,125.71
		z M38.44,134.2c-0.39,0.85-1,0.19-1.08-0.47c-0.07-0.55,0.12-1.22,0.34-1.81c0.33,0.46,0.61,0.93,0.76,1.41
		C38.52,133.6,38.55,133.95,38.44,134.2z M151.81,93.53l0,0.01L151.81,93.53L151.81,93.53z M178.65,133.86
		c-0.09,0.65-0.71,1.31-1.08,0.47c-0.14-0.32-0.07-0.67,0.04-0.98c0.16-0.44,0.41-0.86,0.7-1.27
		C178.51,132.65,178.73,133.3,178.65,133.86z M180.75,126.02c-0.2-0.67-0.85-2.49-0.11-3.02c0.92-0.65,1.13,0.87,1.1,1.31
		c-0.04,0.63-0.29,1.2-0.62,1.73c-0.07,0.12-0.16,0.23-0.23,0.35C180.84,126.28,180.78,126.16,180.75,126.02z M184.83,138.22
		c-0.05,0.89-1,1.6-1.6,0.65c-0.48-0.76-0.13-1.78,0.12-2.55c0.12-0.39,0.27-0.78,0.42-1.16
		C184.25,136.07,184.88,137.2,184.83,138.22z M187.01,123.27c-0.18-0.83-0.59-2.52-0.01-3.27c0.97-1.25,2.25,0.4,2.29,1.4
		c0.05,1.27-0.75,2.4-1.44,3.39c-0.08,0.12-0.16,0.24-0.24,0.36C187.36,124.54,187.15,123.91,187.01,123.27z"/>
	<g class="st2">
		<path class="st3" d="M182.62,97.99L182.62,97.99c0.53-1.73,0.03-3.55-1.22-4.47c-0.02-0.03-0.04-0.05-0.07-0.07
			c-0.04-0.03-0.93-0.63-0.88-1.83c1.27-0.42,3.61-1.68,4.53-3.49c0.8-1.58,0.8-2.4,0.79-2.44c0-0.12-0.08-0.23-0.19-0.28
			l-0.19-0.07c-0.09-0.03-0.19-0.03-0.27,0.02l-2.43,1.49l1.3-2.73c0.04-0.09,0.04-0.18,0-0.27l-0.09-0.18
			c-0.06-0.11-0.18-0.17-0.29-0.16c-0.03,0-0.86,0.09-2.34,1.04c-1.82,1.17-2.83,3.86-3.04,5.08c-0.01,0-0.03,0.01-0.04,0.01
			c-1.28,0.28-2.02-0.63-2.05-0.67c-0.02-0.03-0.04-0.05-0.07-0.06c-1.04-1.16-2.91-1.47-4.57-0.76c-2.07,0.89-3.15,3.04-2.4,4.79
			c0.53,1.25,1.84,1.96,3.29,1.96c0.6,0,1.22-0.12,1.83-0.38c0.99-0.42,1.78-1.14,2.24-2.04c0.09-0.1,0.58-0.61,1.1-0.63
			c0.22-0.01,0.45-0.01,0.68-0.01c0.01,0,0.02,0,0.03,0c0.01,0.16,0.03,0.32,0.04,0.47c0.04,0.53-0.43,1.07-0.52,1.16
			c-0.84,0.55-1.47,1.41-1.79,2.44c-0.32,1.03-0.28,2.11,0.1,3.04c0.4,0.94,1.11,1.62,2,1.89c0.29,0.09,0.59,0.13,0.88,0.13
			C180.53,101.01,182.06,99.8,182.62,97.99z M179.99,94.74c0.96,0.3,1.44,1.54,1.06,2.77c-0.38,1.23-1.48,1.98-2.44,1.69
			c-0.97-0.3-1.44-1.54-1.06-2.77C177.94,95.2,179.03,94.44,179.99,94.74z M173.62,93.17c-1.26,0.54-2.63,0.17-3.06-0.82
			c-0.42-0.99,0.26-2.24,1.52-2.78c0.38-0.16,0.79-0.25,1.17-0.25c0.24,0,0.47,0.03,0.7,0.1c0.56,0.16,0.99,0.51,1.19,0.98
			C175.56,91.39,174.88,92.63,173.62,93.17z"/>
		<path class="st3" d="M188.08,100.75c-0.11,0.38-0.31,0.7-0.59,0.95c-0.34-0.93-0.94-1.72-1.85-1.94c-1.05-0.26-1.87,0.68-2.1,1.62
			c-0.21,0.87,0.18,1.69,0.99,2.06c0.6,0.28,1.25,0.32,1.88,0.22c-0.06,0.69-0.36,1.35-0.85,1.84c-0.32-1.13-1.06-2.08-2.33-2.02
			c-0.96,0.04-1.68,0.93-1.85,1.82c-0.17,0.89,0.31,1.71,1.11,2.1c0.6,0.29,1.23,0.35,1.84,0.25c-0.15,0.63-0.47,1.22-0.92,1.67
			c-0.1-0.27-0.23-0.52-0.39-0.76c-0.49-0.72-1.32-1.33-2.23-1.13c-0.91,0.2-1.6,1.19-1.65,2.1c-0.05,0.9,0.6,1.59,1.43,1.84
			c0.56,0.17,1.12,0.19,1.65,0.09c-0.04,0.17-0.08,0.33-0.15,0.49c-0.11,0.27-0.11,0.32-0.37,0.41c-0.77,0.25-1.67-0.21-2.23-0.69
			c-0.67-0.57-1.65,0.4-0.97,0.98c0.91,0.77,2.07,1.29,3.28,1.1c1.1-0.18,1.6-1.02,1.81-2.07c0.05-0.27,0.08-0.55,0.09-0.83
			c0.92-0.62,1.63-1.6,1.94-2.68c0.09-0.32,0.14-0.69,0.15-1.09c0.92-0.58,1.65-1.51,1.92-2.51c0.11-0.41,0.15-0.92,0.11-1.44
			c0.77-0.47,1.38-1.18,1.62-2.04C189.65,100.26,188.32,99.9,188.08,100.75z M180.65,109.21c0.23-0.42,0.51-0.54,0.9-0.23
			c0.32,0.26,0.52,0.65,0.63,1.06C181.51,110.2,180.12,110.2,180.65,109.21z M182.94,105.12c0.6-0.79,1.22,0.45,1.41,1.11
			C183.59,106.42,182.18,106.14,182.94,105.12z M185.79,102.33c-0.79-0.01-1.29-0.44-0.63-1.14c0.1-0.11,0.08-0.11,0.16-0.08
			c0.15,0.04,0.31,0.2,0.42,0.33c0.21,0.25,0.35,0.55,0.46,0.86C186.07,102.32,185.93,102.33,185.79,102.33z"/>
		<path class="st3" d="M173.51,84.22c0.18-0.45,0.16-0.95-0.07-1.38l-3.69-7.03v0c-0.23-0.43-0.63-0.74-1.1-0.84
			c-0.48-0.11-0.97,0-1.35,0.29l-3.4,2.56c-0.65,0.49-0.85,1.36-0.47,2.08l3.06,5.82c0.29,0.56,0.86,0.88,1.46,0.88
			c0.17,0,0.35-0.03,0.53-0.09l4.04-1.35C172.97,85.01,173.33,84.67,173.51,84.22z M172.4,83.77c-0.03,0.07-0.1,0.2-0.27,0.26
			l-4.04,1.35c-0.21,0.07-0.43-0.02-0.53-0.21l-3.06-5.82c-0.1-0.19-0.05-0.43,0.13-0.56l3.4-2.56c0.09-0.07,0.19-0.09,0.26-0.09
			c0.04,0,0.07,0.01,0.1,0.01c0.07,0.02,0.21,0.07,0.3,0.23l3.69,7.03C172.46,83.55,172.43,83.7,172.4,83.77z"/>
		<path class="st3" d="M168.19,77.74c-0.23-0.43-0.7-0.6-0.99-0.36l-1.95,1.61c-0.24,0.19-0.28,0.59-0.1,0.93l2.3,4.38
			c0.18,0.34,0.53,0.53,0.82,0.45l2.43-0.7c0.37-0.11,0.5-0.59,0.27-1.02L168.19,77.74z"/>
		<path class="st3" d="M173.2,81.26c0.11,0.21,0.3,0.36,0.52,0.43c0.09,0.03,0.18,0.04,0.26,0.04c0.14,0,0.28-0.03,0.41-0.1
			l0.68-0.36c0.43-0.23,0.6-0.76,0.37-1.2l-2.48-4.73c-0.23-0.43-0.77-0.6-1.2-0.37l-0.68,0.36c-0.43,0.23-0.6,0.76-0.37,1.2
			L173.2,81.26z"/>
		<path class="st3" d="M38.36,108.89l-8.8-12.09c-0.29-0.4-0.75-0.55-1.04-0.34l-1.6,1.24c-0.29,0.21-0.29,0.7-0.01,1.1l8.8,12.09
			c0.2,0.27,0.5,0.55,0.7,0.68c0.55,0.36,1.99,1.03,2.43,0.98c0.13-0.01,0.39-0.22,0.45-0.34c0.18-0.4-0.26-1.91-0.49-2.45
			C38.7,109.55,38.56,109.16,38.36,108.89z"/>
		<path class="st3" d="M27.46,94.31c-0.29-0.79-1.16-1.19-1.94-0.91c-0.79,0.29-1.19,1.16-0.91,1.94c0.29,0.79,1.16,1.19,1.94,0.91
			C27.34,95.97,27.74,95.09,27.46,94.31z"/>
		<path class="st3" d="M53.3,77.03l-5.32-2.71c-0.57-0.29-1.23-0.34-1.84-0.14c-0.61,0.2-1.11,0.62-1.4,1.2l-5.01,9.84
			c-0.29,0.57-0.34,1.23-0.14,1.84c0.2,0.61,0.62,1.11,1.2,1.4l5.32,2.71c0.34,0.18,0.72,0.26,1.09,0.26c0.25,0,0.5-0.04,0.75-0.12
			c0.61-0.2,1.11-0.62,1.4-1.2l5.01-9.84c0.29-0.57,0.34-1.23,0.14-1.84C54.3,77.82,53.88,77.32,53.3,77.03z M52.62,78.37
			c0.02,0.01,0.03,0.03,0.05,0.04l-3.76,1.31l-0.99-3.74L52.62,78.37z M41.08,85.9l5.01-9.84c0.06-0.11,0.13-0.2,0.22-0.28
			l1.57,5.91c0.25,0.94-0.29,1.99-1.2,2.35l-5.7,2.21C40.99,86.12,41.02,86.01,41.08,85.9z M42.09,87.43l3.6-1.39l1.1,3.79
			L42.09,87.43z M48.15,89.13l-1.05-3.64l0.13-0.05c1.63-0.63,2.55-2.45,2.11-4.14l-0.03-0.12l3.53-1.23L48.15,89.13z"/>
		<path class="st3" d="M41.79,100.56c0-0.01,0-0.01,0-0.02c0,0,0,0,0-0.01l-3.47-9.32l0,0l-0.2-0.55l-1.42-3.8
			c-0.12-0.31-0.46-0.47-0.77-0.35l-3.5,1.3c-0.15,0.06-0.27,0.17-0.34,0.31c-0.07,0.15-0.07,0.31-0.02,0.46l1.26,3.38l0.36,0.97
			l0,0l3.47,9.32c0,0,0,0,0,0c0.04,0.1,0.1,0.19,0.19,0.26l2.83,2.25c0.11,0.09,0.24,0.13,0.37,0.13c0.07,0,0.14-0.01,0.21-0.04
			c0.2-0.07,0.34-0.25,0.38-0.45l0.67-3.55c0-0.01,0-0.02,0-0.04C41.83,100.73,41.82,100.64,41.79,100.56z M40.28,102.52l-0.67,0.25
			l-0.67-0.53l0.75-0.28l0.75-0.28L40.28,102.52z M40.45,100.39l-0.26,0.1l-3.26-8.75l0.26-0.1L40.45,100.39z M35.78,87.86l0.45,1.2
			l-2.37,0.88l-0.45-1.2L35.78,87.86z M35.08,92.42l3.26,8.75l-0.26,0.1l-3.26-8.75L35.08,92.42z"/>
		<path class="st3" d="M90.26,53.28c-2.07-1.31-4.63-1.29-6.27,0.03c-0.04,0.01-0.07,0.03-0.1,0.06c-0.01,0.01-1.23,1.09-2.93,0.52
			c-0.09-1.79-0.9-5.4-2.99-7.28c-1.79-1.61-2.87-1.89-2.91-1.91c-0.12-0.03-0.24,0.01-0.32,0.11l-0.16,0.22
			c-0.05,0.08-0.07,0.17-0.05,0.26l1.22,4.13l-3.46-2.96c-0.07-0.06-0.17-0.09-0.26-0.07l-0.27,0.06c-0.12,0.03-0.21,0.12-0.23,0.24
			c-0.01,0.05-0.19,1.14,0.55,3.44c0.9,2.83,4.17,5.15,5.68,5.84c0,0.04,0.01,0.09,0.01,0.13c-0.1,1.88-1.63,2.56-1.69,2.59
			c-0.03,0.01-0.06,0.04-0.09,0.06c-1.88,0.95-2.94,3.28-2.6,5.71c0,0,0,0,0,0c0.4,2.79,2.5,4.85,4.84,4.85
			c0.18,0,0.37-0.01,0.56-0.04c1.24-0.18,2.33-0.92,3.06-2.09c0.71-1.15,0.99-2.59,0.79-4.04c-0.2-1.45-0.87-2.74-1.88-3.65
			c-0.07-0.1-0.66-1.02-0.48-1.79c0.07-0.3,0.15-0.6,0.23-0.91c0.01-0.05,0.02-0.1,0.04-0.15c0.25,0.04,0.5,0.09,0.74,0.13
			c0.79,0.16,1.38,1.07,1.44,1.17c0.42,1.29,1.32,2.43,2.56,3.21c1.04,0.66,2.19,0.98,3.28,0.98c1.6,0,3.06-0.68,3.88-1.98
			C93.81,58,92.83,54.9,90.26,53.28z M90.58,59c-0.78,1.23-2.67,1.44-4.22,0.46c-0.76-0.48-1.32-1.17-1.58-1.94
			c-0.25-0.75-0.19-1.48,0.18-2.07c0.37-0.58,1-0.96,1.79-1.05c0.81-0.09,1.67,0.11,2.43,0.59C90.73,55.97,91.36,57.77,90.58,59z
			 M77.82,60.29c0.63,0,1.25,0.26,1.77,0.75c0.64,0.59,1.06,1.44,1.19,2.38c0.27,1.93-0.75,3.69-2.29,3.9
			c-0.73,0.1-1.47-0.16-2.09-0.73c-0.64-0.59-1.06-1.44-1.19-2.38c-0.13-0.95,0.04-1.88,0.48-2.62c0.43-0.72,1.07-1.18,1.81-1.28
			C77.61,60.3,77.72,60.29,77.82,60.29z"/>
		<path class="st3" d="M119.59,44.86l0.04-1.12c0-0.13-0.07-0.24-0.18-0.3c-0.04-0.02-0.08-0.03-0.12-0.03
			c-0.08,0-0.16,0.02-0.22,0.08l-8.74,7.49l0.03-0.8l9.15-7.58c0.07-0.06,0.11-0.16,0.11-0.25c0-0.1-0.05-0.18-0.13-0.24
			l-12.65-9.09c-0.05-0.04-0.11-0.06-0.17-0.06c-0.06,0-0.12,0.01-0.18,0.05l-9.39,5.75c-0.09,0.06-0.15,0.15-0.15,0.26l-0.09,2.43
			c0,0.09,0.03,0.18,0.1,0.24l12.63,11.87c0.06,0.05,0.13,0.08,0.2,0.08c0.08,0,0.16-0.02,0.22-0.08l9.44-8.46
			C119.55,45.03,119.59,44.95,119.59,44.86z"/>
		<path class="st3" d="M128.36,44.68l-2.3-1.57c-0.4-0.29-1.04-0.08-1.44,0.46l-12.11,16.68c-0.27,0.37-0.51,0.88-0.6,1.21
			c-0.24,0.87-0.51,3.04-0.25,3.6c0.07,0.16,0.46,0.42,0.63,0.44c0.61,0.07,2.4-1.16,3-1.69c0.25-0.22,0.7-0.57,0.97-0.94
			l12.11-16.68C128.76,45.65,128.76,44.97,128.36,44.68z"/>
		<path class="st3" d="M130.73,42.36c0.91-0.71,1.07-2.03,0.36-2.94c-0.71-0.91-2.03-1.07-2.94-0.36c-0.91,0.71-1.07,2.03-0.36,2.94
			C128.51,42.91,129.82,43.07,130.73,42.36z"/>
		<path class="st3" d="M163.46,58.92c-0.48-0.66-1.18-1.09-1.98-1.21l-15.04-2.38c-1.66-0.26-3.21,0.87-3.47,2.52l-1.29,8.12
			c-0.26,1.65,0.87,3.21,2.52,3.47l15.04,2.38v0c0.16,0.02,0.32,0.04,0.48,0.04c1.47,0,2.76-1.07,3-2.56l1.29-8.12
			C164.13,60.37,163.94,59.57,163.46,58.92z M146.21,56.81l15.04,2.38c0.35,0.06,0.64,0.24,0.87,0.5l-7.38,4.77
			c-1.25,0.81-3.02,0.52-3.96-0.63L145.22,57C145.51,56.83,145.85,56.75,146.21,56.81z M143.18,66.21l1.24-7.81l3.96,4.86
			l-5.18,3.51C143.15,66.59,143.15,66.4,143.18,66.21z M144.45,67.95c-0.07-0.01-0.14-0.05-0.21-0.08l5.09-3.45l0.28,0.35
			c0.88,1.07,2.19,1.65,3.52,1.65c0.84,0,1.69-0.23,2.42-0.71l0.37-0.24l3.69,4.86c-0.04,0-0.08,0-0.13-0.01L144.45,67.95z
			 M161.23,69.06c-0.04,0.23-0.12,0.43-0.24,0.61l-3.8-5.01l5.28-3.41L161.23,69.06z"/>
		<path class="st3" d="M104.31,53.39c-0.34-0.17-0.7-0.31-1.07-0.41c-0.5-1.45-1.55-2.75-2.88-3.54c-0.39-0.23-0.87-0.44-1.39-0.59
			c-0.45-1.43-1.42-2.73-2.65-3.45c-0.51-0.3-1.15-0.53-1.85-0.67c-0.35-1.19-1.1-2.26-2.16-2.89c-1.06-0.62-2.02,1.02-0.96,1.64
			c0.47,0.28,0.82,0.67,1.05,1.12c-1.36,0.11-2.62,0.64-3.24,1.77c-0.72,1.31,0.24,2.73,1.41,3.37c1.08,0.59,2.31,0.36,3.1-0.57
			c0.58-0.69,0.9-1.53,0.99-2.41c0.89,0.33,1.65,0.97,2.12,1.78c-1.63,0.03-3.15,0.67-3.53,2.38c-0.29,1.29,0.64,2.57,1.76,3.11
			c1.12,0.55,2.39,0.2,3.2-0.72c0.6-0.69,0.91-1.51,0.99-2.36c0.79,0.42,1.46,1.05,1.89,1.82c-0.39,0.04-0.77,0.12-1.14,0.25
			c-1.13,0.4-2.24,1.28-2.3,2.57c-0.06,1.29,1.01,2.56,2.2,2.94c1.19,0.38,2.33-0.23,2.96-1.24c0.43-0.69,0.65-1.42,0.71-2.16
			c0.21,0.11,0.41,0.22,0.59,0.37c0.32,0.25,0.39,0.26,0.41,0.63c0.05,1.11-0.87,2.14-1.72,2.72c-1,0.69-0.05,2.34,0.96,1.64
			c1.35-0.93,2.46-2.29,2.63-3.97C106.57,55.01,105.62,54.04,104.31,53.39z M90.9,47.53c-0.11-0.17-0.11-0.14-0.05-0.25
			c0.11-0.19,0.38-0.34,0.6-0.44c0.4-0.19,0.85-0.28,1.31-0.32c-0.02,0.2-0.05,0.39-0.11,0.59C92.35,48.16,91.6,48.67,90.9,47.53z
			 M95.34,51.89c-0.84-1.08,1.04-1.47,1.99-1.48C97.3,51.5,96.41,53.28,95.34,51.89z M99.96,56.4c-0.48-0.46-0.54-0.88,0.01-1.28
			c0.46-0.34,1.05-0.46,1.64-0.46C101.6,55.62,101.08,57.47,99.96,56.4z"/>
		<path class="st3" d="M140.67,53.34l2.22-1.76c0.26-0.21,0.3-0.59,0.1-0.85l-3.2-4.03c-0.1-0.12-0.24-0.21-0.4-0.22
			c-0.16-0.02-0.32,0.03-0.44,0.13l-2.71,2.15l-2.12,1.68l0,0l-10.91,8.66c0,0,0,0,0,0c-0.01,0.01-0.01,0.02-0.02,0.02
			c-0.07,0.06-0.12,0.13-0.15,0.21c0,0.01-0.02,0.02-0.02,0.03l-1.74,4.67c-0.07,0.2-0.04,0.42,0.09,0.58
			c0.12,0.14,0.29,0.23,0.47,0.23c0.03,0,0.05,0,0.08,0l4.94-0.64c0.01,0,0.02-0.01,0.03-0.01c0.09-0.02,0.17-0.05,0.24-0.1
			c0,0,0.01,0,0.02-0.01c0,0,0,0,0,0l11.52-9.14L140.67,53.34L140.67,53.34z M126.87,62.76l-0.52-0.66l10.44-8.29l0.52,0.65
			L126.87,62.76z M123.93,63.37l-0.77-0.97l0.6-1.61l0.23,0.29l0,0l0.71,0.89l0.94,1.18L123.93,63.37z M139.21,47.93l2.45,3.09
			l-1.74,1.39l-2.45-3.09L139.21,47.93z M135.38,52.04l-10.44,8.29l-0.52-0.65l10.44-8.29L135.38,52.04z"/>
		<path class="st3" d="M68.58,60.55c-0.48-0.36-1.09-0.49-1.68-0.36l-10.68,2.4c-0.59,0.13-1.08,0.51-1.36,1.04
			c-0.28,0.53-0.31,1.16-0.09,1.71l2.19,5.45c0.32,0.79,1.07,1.28,1.89,1.28c0.15,0,0.3-0.02,0.45-0.05l8.84-1.99
			c0.98-0.22,1.65-1.11,1.59-2.12l-0.35-5.86C69.36,61.46,69.06,60.91,68.58,60.55z M67.89,68.87l-8.84,1.99
			c-0.41,0.09-0.81-0.12-0.96-0.51L55.9,64.9c-0.09-0.23-0.08-0.49,0.04-0.7c0.11-0.22,0.32-0.37,0.56-0.43l10.68-2.4
			c0.06-0.01,0.12-0.02,0.18-0.02c0.18,0,0.36,0.06,0.51,0.17c0.2,0.15,0.32,0.37,0.33,0.62L68.55,68
			C68.57,68.41,68.3,68.78,67.89,68.87z"/>
		<path class="st3" d="M66.23,63.33l-8.03,1.81c-0.65,0.15-1.05,0.72-0.83,1.2l1.44,3.17c0.17,0.38,0.68,0.58,1.2,0.46l6.65-1.5
			c0.52-0.12,0.9-0.51,0.89-0.93l-0.06-3.48C67.48,63.53,66.88,63.19,66.23,63.33z"/>
		<path class="st3" d="M56.14,60.4c0.06,0.29,0.24,0.53,0.49,0.69c0.18,0.11,0.38,0.17,0.59,0.17c0.08,0,0.16-0.01,0.24-0.03
			l7.18-1.61c0.6-0.13,0.97-0.73,0.84-1.32l-0.23-1.04c-0.13-0.6-0.73-0.97-1.32-0.84l-7.18,1.61c-0.29,0.06-0.53,0.24-0.69,0.49
			c-0.16,0.25-0.21,0.55-0.14,0.83L56.14,60.4z"/>
	</g>
	<g class="st2">
		<path class="st3" d="M62.15,139.7c-0.49-0.53-1.04-1.07-1.63-1.59c-0.56-0.49-1.09-1.01-1.57-1.54c-0.47-0.51-0.86-1.05-1.18-1.6
			c-0.29-0.51-0.44-1.07-0.44-1.66c0-0.22,0.05-0.4,0.14-0.52c0.1-0.14,0.23-0.25,0.38-0.33c0.17-0.09,0.37-0.15,0.58-0.19
			c0.65-0.11,1.26-0.07,1.67,0.18c0.28,0.17,0.5,0.37,0.68,0.64c0.18,0.27,0.32,0.58,0.41,0.93c0.09,0.36,0.14,0.72,0.14,1.09
			c0,0.35-0.05,0.75-0.15,1.17c-0.09,0.38-0.25,0.67-0.5,0.89c-0.11,0.1-0.13,0.32-0.08,0.46c0.05,0.16,0.19,0.26,0.39,0.26
			c0.43-0.03,0.82-0.16,1.16-0.37c0.33-0.2,0.62-0.47,0.86-0.78c0.23-0.31,0.41-0.65,0.54-1.03c0.13-0.37,0.19-0.76,0.19-1.14
			c0-0.6-0.13-1.11-0.39-1.54c-0.25-0.41-0.59-0.75-0.99-1c-0.39-0.24-0.84-0.42-1.33-0.53c-1.01-0.23-2.06-0.21-3.04,0.02
			c-0.53,0.12-1.03,0.33-1.46,0.61c-0.45,0.29-0.82,0.67-1.09,1.12c-0.28,0.46-0.42,1.03-0.42,1.69c0,0.69,0.18,1.32,0.53,1.89
			c0.33,0.54,0.74,1.06,1.23,1.56c0.48,0.49,1,0.98,1.55,1.45c0.53,0.46,1.03,0.95,1.49,1.47c0.45,0.5,0.83,1.06,1.13,1.64
			c0.29,0.56,0.43,1.19,0.43,1.89c0,0.57-0.17,0.98-0.51,1.25c-0.37,0.29-0.83,0.43-1.39,0.43c-0.4,0-0.77-0.07-1.08-0.21
			c-0.32-0.14-0.58-0.33-0.8-0.57c-0.22-0.24-0.39-0.53-0.51-0.86c-0.12-0.34-0.18-0.71-0.18-1.11c0-0.43,0.08-0.86,0.23-1.29
			c0.15-0.41,0.39-0.75,0.71-1.02c0.08-0.07,0.13-0.18,0.13-0.29v-0.11c0-0.21-0.17-0.37-0.38-0.37l-0.19-0.03
			c-0.45,0-0.88,0.09-1.26,0.26c-0.38,0.17-0.71,0.4-1,0.69c-0.28,0.29-0.51,0.64-0.67,1.03s-0.24,0.81-0.24,1.25
			c0,0.68,0.16,1.25,0.49,1.71c0.31,0.44,0.71,0.8,1.2,1.07c0.47,0.26,1,0.45,1.56,0.56c0.55,0.1,1.09,0.16,1.59,0.16
			c0.57,0,1.15-0.07,1.71-0.22c0.58-0.15,1.1-0.38,1.57-0.69c0.48-0.32,0.86-0.73,1.16-1.23c0.3-0.51,0.45-1.11,0.45-1.79
			c0-0.72-0.18-1.41-0.54-2.03C63.08,140.83,62.65,140.25,62.15,139.7z"/>
		<path class="st3" d="M74.6,136.16c0.07-0.08,0.11-0.18,0.1-0.28l-0.21-4.1c-0.01-0.26-0.33-0.43-0.56-0.32
			c-0.02,0.01-0.06,0.03-0.16,0.03h-8.05c-0.09,0-0.14-0.02-0.16-0.03c-0.23-0.11-0.55,0.06-0.56,0.32l-0.21,4.1
			c-0.01,0.1,0.07,0.2,0.15,0.28c0.21,0.22,0.67,0.07,0.69-0.24c0.03-0.43,0.11-0.86,0.25-1.29c0.14-0.43,0.33-0.82,0.57-1.17
			c0.24-0.34,0.53-0.62,0.87-0.83c0.3-0.19,0.64-0.29,1.04-0.31v12.01c0,0.43,0,0.79-0.01,1.1c-0.01,0.25-0.05,0.46-0.12,0.62
			c-0.06,0.12-0.16,0.2-0.31,0.26c-0.14,0.05-0.41,0.11-0.96,0.11c-0.21,0-0.38,0.17-0.38,0.38v0.09c0,0.21,0.17,0.38,0.38,0.38h5.6
			c0.21,0,0.38-0.25,0.38-0.46s-0.17-0.38-0.38-0.38c-0.55,0-0.82-0.06-0.96-0.11c-0.15-0.06-0.25-0.14-0.31-0.26
			c-0.08-0.16-0.12-0.37-0.12-0.62c-0.01-0.3-0.01-0.67-0.01-1.1v-12c0.35,0.04,0.67,0.12,0.94,0.26c0.37,0.19,0.68,0.45,0.92,0.76
			c0.25,0.33,0.45,0.72,0.6,1.16c0.15,0.44,0.23,0.91,0.26,1.39C73.88,136.22,74.39,136.37,74.6,136.16z"/>
		<path class="st3" d="M85.55,146.81c0-0.21-0.17-0.38-0.38-0.38c-0.35,0-0.62-0.05-0.81-0.15c-0.18-0.1-0.32-0.22-0.42-0.39
			c-0.11-0.18-0.2-0.41-0.25-0.67c-0.06-0.31-0.14-0.65-0.23-1l-2.84-12.97c-0.07-0.3-0.6-0.38-0.77-0.12
			c-0.19,0.3-0.41,0.58-0.67,0.84c-0.25,0.26-0.53,0.48-0.83,0.64c-0.12,0.07-0.19,0.19-0.19,0.33c0,0.02,0,0.08,0.01,0.16
			c0.01,0.09,0.03,0.19,0.05,0.3l0.08,0.31l-1.92,8.54l-0.27,1.26c-0.1,0.49-0.25,0.96-0.43,1.42c-0.18,0.44-0.4,0.82-0.67,1.13
			c-0.23,0.26-0.51,0.39-0.85,0.39c-0.21,0-0.38,0.25-0.38,0.46s0.17,0.38,0.38,0.38h4.1c0.17,0,0.31-0.16,0.36-0.33
			c0.02,0.19,0.18,0.33,0.37,0.33h6.19C85.38,147.27,85.55,147.01,85.55,146.81z M80.02,141.94h-2.7l1.39-6.22L80.02,141.94z
			 M78.63,146.76c-0.02-0.19-0.18-0.33-0.37-0.33c-0.53,0-0.9-0.12-1.1-0.36c-0.22-0.26-0.33-0.65-0.33-1.17
			c0-0.39,0.04-0.78,0.11-1.16c0.06-0.31,0.12-0.61,0.19-0.91h3.08c0.09,0.41,0.19,0.83,0.3,1.26c0.12,0.5,0.18,0.99,0.18,1.46
			c0,0.23-0.04,0.42-0.12,0.53c-0.08,0.11-0.17,0.19-0.3,0.23c-0.17,0.06-0.36,0.1-0.56,0.11c-0.24,0.01-0.48,0.02-0.73,0.02
			C78.82,146.43,78.68,146.59,78.63,146.76z"/>
		<path class="st3" d="M93.77,131.46c-0.02,0.01-0.06,0.03-0.16,0.03h-8.05c-0.09,0-0.14-0.02-0.16-0.03
			c-0.23-0.11-0.55,0.06-0.56,0.32l-0.21,4.1c-0.01,0.1,0.07,0.2,0.15,0.28c0.21,0.22,0.67,0.07,0.69-0.24
			c0.03-0.43,0.11-0.86,0.25-1.29c0.14-0.43,0.33-0.82,0.57-1.17c0.24-0.34,0.53-0.62,0.87-0.83c0.3-0.19,0.64-0.29,1.04-0.31v12.01
			c0,0.43,0,0.79-0.01,1.1c-0.01,0.25-0.05,0.46-0.12,0.62c-0.06,0.12-0.16,0.2-0.31,0.26c-0.14,0.05-0.41,0.11-0.96,0.11
			c-0.21,0-0.38,0.17-0.38,0.38v0.09c0,0.21,0.17,0.38,0.38,0.38h5.6c0.21,0,0.38-0.25,0.38-0.46s-0.17-0.38-0.38-0.38
			c-0.55,0-0.82-0.06-0.96-0.11c-0.15-0.06-0.25-0.14-0.31-0.26c-0.08-0.16-0.12-0.37-0.12-0.62c-0.01-0.3-0.01-0.67-0.01-1.1v-12
			c0.35,0.04,0.67,0.12,0.94,0.26c0.37,0.19,0.68,0.45,0.92,0.76c0.25,0.33,0.45,0.72,0.6,1.16c0.15,0.44,0.23,0.91,0.26,1.39
			c0.02,0.3,0.53,0.46,0.73,0.24c0.07-0.08,0.11-0.18,0.1-0.28l-0.21-4.1C94.32,131.52,94,131.34,93.77,131.46z"/>
		<path class="st3" d="M95.5,147.27h5.6c0.21,0,0.38-0.25,0.38-0.46s-0.17-0.38-0.38-0.38c-0.54,0-0.82-0.07-0.95-0.12
			c-0.16-0.07-0.26-0.15-0.32-0.27c-0.07-0.15-0.12-0.35-0.12-0.6c-0.01-0.31-0.01-0.67-0.01-1.1v-9.92c0-0.43,0-0.79,0.01-1.1
			c0.01-0.25,0.05-0.45,0.12-0.6c0.06-0.12,0.16-0.21,0.32-0.27c0.14-0.06,0.41-0.12,0.95-0.12c0.21,0,0.38-0.25,0.38-0.46
			s-0.17-0.38-0.38-0.38h-5.6c-0.21,0-0.38,0.25-0.38,0.46c0,0.21,0.17,0.38,0.38,0.38c0.54,0,0.82,0.07,0.95,0.12
			c0.16,0.06,0.26,0.15,0.32,0.27c0.07,0.15,0.12,0.35,0.12,0.6c0.01,0.31,0.01,0.67,0.01,1.1v9.92c0,0.43,0,0.79-0.01,1.1
			c-0.01,0.25-0.05,0.45-0.12,0.6c-0.06,0.12-0.16,0.21-0.32,0.27c-0.14,0.06-0.41,0.12-0.95,0.12c-0.21,0-0.38,0.17-0.38,0.38v0.09
			C95.12,147.1,95.29,147.27,95.5,147.27z"/>
		<path class="st3" d="M113.37,144.81c0.54-0.75,0.95-1.61,1.21-2.55c0.26-0.93,0.39-1.89,0.39-2.85s-0.13-1.92-0.39-2.86
			c-0.26-0.94-0.66-1.81-1.2-2.57c-0.54-0.76-1.23-1.39-2.05-1.86c-0.83-0.48-1.81-0.72-2.92-0.72s-2.09,0.24-2.91,0.72
			c-0.82,0.47-1.51,1.09-2.05,1.86c-0.54,0.76-0.95,1.62-1.2,2.57c-0.26,0.94-0.39,1.9-0.39,2.86s0.13,1.92,0.39,2.85
			c0.26,0.94,0.66,1.79,1.21,2.55c0.54,0.76,1.23,1.38,2.05,1.85c0.83,0.48,1.81,0.72,2.91,0.72s2.09-0.24,2.92-0.72
			C112.14,146.19,112.83,145.57,113.37,144.81z M106.14,145.41c-0.26-0.36-0.48-0.78-0.66-1.25c-0.18-0.48-0.33-0.97-0.43-1.47
			c-0.1-0.49-0.18-0.99-0.23-1.47c-0.05-0.48-0.07-0.91-0.07-1.28c0-0.41,0.03-0.9,0.08-1.44c0.06-0.55,0.14-1.11,0.26-1.69
			c0.12-0.57,0.28-1.14,0.49-1.69c0.2-0.54,0.46-1.03,0.75-1.45c0.28-0.41,0.63-0.74,1.01-0.99c0.37-0.24,0.79-0.36,1.28-0.36
			c0.44,0,0.83,0.1,1.16,0.3c0.34,0.21,0.64,0.49,0.89,0.83c0.26,0.36,0.48,0.78,0.66,1.25c0.19,0.48,0.33,0.97,0.43,1.47
			c0.1,0.49,0.18,0.99,0.23,1.47c0.05,0.49,0.07,0.91,0.07,1.28c0,0.41-0.02,0.9-0.07,1.45c-0.05,0.55-0.14,1.12-0.26,1.68
			c-0.12,0.57-0.29,1.15-0.49,1.7c-0.2,0.54-0.45,1.03-0.74,1.45c-0.29,0.41-0.63,0.74-1.01,1c-0.69,0.45-1.76,0.48-2.45,0.06
			C106.69,146.03,106.39,145.75,106.14,145.41z"/>
		<path class="st3" d="M136.87,142.83c-0.03,0.41-0.11,0.85-0.25,1.29c-0.14,0.43-0.33,0.83-0.57,1.18
			c-0.24,0.34-0.53,0.62-0.87,0.83c-0.33,0.21-0.71,0.31-1.15,0.31c-0.59,0-1.07-0.01-1.41-0.02c-0.26-0.01-0.45-0.06-0.55-0.15
			c-0.1-0.09-0.17-0.26-0.21-0.5c-0.05-0.31-0.07-0.79-0.07-1.42v-5.63c0.26,0,0.51,0.01,0.77,0.02c0.34,0.01,0.65,0.07,0.93,0.18
			c0.25,0.09,0.44,0.24,0.59,0.46c0.15,0.21,0.22,0.53,0.22,0.96c0,0.21,0.26,0.38,0.46,0.38s0.38-0.17,0.38-0.38v-4.08
			c0-0.21-0.26-0.38-0.46-0.38s-0.38,0.17-0.38,0.38c0,0.34-0.05,0.62-0.15,0.82c-0.1,0.2-0.23,0.36-0.4,0.47
			c-0.18,0.12-0.4,0.21-0.64,0.25c-0.27,0.05-0.57,0.08-0.89,0.08h-0.42v-3.45c0-0.43,0-0.79,0.01-1.1
			c0.01-0.26,0.05-0.46,0.12-0.62c0.06-0.12,0.16-0.2,0.31-0.26c0.14-0.05,0.41-0.11,0.96-0.11h0.47c0.45,0,0.82,0.1,1.15,0.31
			c0.34,0.22,0.63,0.5,0.87,0.83c0.24,0.35,0.44,0.74,0.57,1.17c0.14,0.43,0.22,0.87,0.25,1.29c0.02,0.3,0.53,0.45,0.73,0.23
			c0.07-0.07,0.11-0.18,0.1-0.28l-0.22-4.1c-0.01-0.26-0.33-0.43-0.56-0.32c-0.02,0.01-0.06,0.03-0.16,0.03h-8.83
			c-0.08,0-0.15,0.05-0.21,0.1c-0.07-0.06-0.16-0.1-0.26-0.1h-3.67c-0.21,0-0.38,0.25-0.38,0.46c0,0.21,0.17,0.38,0.38,0.38
			c0.35,0,0.59,0.12,0.76,0.38c0.22,0.32,0.37,0.72,0.47,1.17c0.1,0.48,0.16,0.97,0.16,1.45c0.01,0.51,0.01,0.93,0.01,1.24v4.14
			l-4.81-9.02c-0.07-0.12-0.19-0.2-0.33-0.2h-3.78c-0.21,0-0.38,0.25-0.38,0.46c0,0.21,0.17,0.38,0.38,0.38
			c0.53,0,0.8,0.07,0.94,0.12c0.16,0.07,0.27,0.15,0.33,0.27c0.08,0.15,0.12,0.36,0.12,0.61c0.01,0.31,0.01,0.68,0.01,1.09v7.77
			c0,0.31,0,0.73-0.01,1.24c-0.01,0.49-0.06,0.97-0.16,1.45c-0.1,0.45-0.26,0.85-0.47,1.17c-0.17,0.26-0.41,0.38-0.76,0.38
			c-0.21,0-0.38,0.17-0.38,0.38v0.09c0,0.21,0.17,0.38,0.38,0.38h3.67c0.21,0,0.38-0.25,0.38-0.46s-0.17-0.38-0.38-0.38
			c-0.35,0-0.59-0.12-0.76-0.38c-0.22-0.32-0.37-0.72-0.47-1.17c-0.1-0.48-0.16-0.97-0.16-1.45c-0.01-0.51-0.01-0.93-0.01-1.24
			v-8.03l6.7,12.93c0.06,0.12,0.19,0.2,0.33,0.2h0.11c0.21,0,0.38-0.17,0.38-0.38v-10.35c0-0.31,0-0.73,0.01-1.24
			c0.01-0.48,0.06-0.97,0.16-1.45c0.1-0.45,0.26-0.85,0.47-1.17c0.17-0.26,0.41-0.38,0.76-0.38c0.08,0,0.15-0.05,0.21-0.1
			c0.07,0.06,0.16,0.1,0.26,0.1c0.54,0,0.82,0.07,0.95,0.12c0.16,0.06,0.26,0.15,0.32,0.27c0.08,0.15,0.12,0.36,0.12,0.61
			c0.01,0.3,0.01,0.67,0.01,1.1v9.92c0,0.43,0,0.79-0.01,1.1c-0.01,0.25-0.05,0.45-0.12,0.6c-0.06,0.12-0.17,0.21-0.32,0.27
			c-0.14,0.06-0.41,0.12-0.95,0.12c-0.21,0-0.38,0.17-0.38,0.38v0.09c0,0.21,0.17,0.38,0.38,0.38h9.53c0.2,0,0.37-0.16,0.38-0.36
			l0.22-4.04c0.01-0.1-0.07-0.2-0.15-0.28C137.35,142.38,136.89,142.53,136.87,142.83z"/>
		<path class="st3" d="M149.92,146.43c-0.57,0.03-0.79-0.18-0.89-0.34c-0.21-0.32-0.36-0.73-0.45-1.24
			c-0.09-0.53-0.15-1.14-0.18-1.8c-0.03-0.69-0.12-1.36-0.26-1.99c-0.15-0.65-0.4-1.24-0.76-1.73c-0.15-0.21-0.33-0.38-0.54-0.53
			c0.07-0.03,0.14-0.06,0.22-0.09c0.46-0.2,0.86-0.46,1.19-0.78c0.34-0.33,0.6-0.72,0.78-1.18c0.18-0.45,0.28-0.97,0.28-1.53
			c0-0.53-0.09-1.03-0.28-1.48c-0.18-0.45-0.44-0.85-0.77-1.18c-0.33-0.34-0.72-0.6-1.17-0.79c-0.45-0.19-0.95-0.29-1.49-0.29h-6.94
			c-0.21,0-0.38,0.25-0.38,0.46c0,0.21,0.17,0.38,0.38,0.38c0.35,0,0.63,0.02,0.83,0.07c0.16,0.04,0.28,0.1,0.36,0.18
			c0.08,0.08,0.13,0.2,0.16,0.37c0.04,0.22,0.06,0.5,0.06,0.83v11.21c0,0.33-0.02,0.61-0.06,0.82c-0.03,0.16-0.08,0.28-0.16,0.37
			s-0.2,0.14-0.35,0.18c-0.2,0.05-0.48,0.07-0.83,0.07c-0.21,0-0.38,0.25-0.38,0.46s0.17,0.38,0.38,0.38h5.6
			c0.21,0,0.38-0.25,0.38-0.46s-0.17-0.38-0.38-0.38c-0.35,0-0.63-0.02-0.83-0.07c-0.16-0.04-0.28-0.1-0.35-0.18
			c-0.08-0.08-0.13-0.2-0.16-0.37c-0.04-0.22-0.06-0.5-0.06-0.83v-11.21c0-0.33,0.02-0.61,0.06-0.82c0.03-0.16,0.08-0.28,0.16-0.37
			c0.08-0.08,0.2-0.14,0.35-0.18c0.2-0.05,0.48-0.07,0.83-0.07h0.43c0.32,0,0.58,0.07,0.79,0.22c0.23,0.16,0.41,0.37,0.56,0.62
			c0.15,0.26,0.26,0.56,0.32,0.87c0.07,0.33,0.1,0.65,0.1,0.96c0,0.36-0.05,0.74-0.14,1.13c-0.09,0.38-0.23,0.74-0.42,1.07
			c-0.18,0.31-0.41,0.57-0.69,0.78c-0.26,0.19-0.58,0.29-0.95,0.3h-0.64c-0.21,0-0.38,0.17-0.38,0.38v0.09c0,0.1,0.04,0.2,0.12,0.27
			c0.07,0.07,0.18,0.11,0.28,0.1c0.4-0.02,0.71,0.04,0.9,0.2c0.22,0.17,0.38,0.42,0.5,0.73c0.13,0.35,0.23,0.76,0.28,1.21l0.18,1.52
			c0.07,0.54,0.16,1.07,0.27,1.57c0.12,0.55,0.34,1.04,0.64,1.46c0.31,0.44,0.72,0.79,1.24,1.06c0.52,0.27,1.19,0.41,1.99,0.41h0.28
			c0.21,0,0.38-0.25,0.38-0.46c0-0.1-0.04-0.2-0.12-0.27C150.12,146.46,150.02,146.43,149.92,146.43z"/>
		<path class="st3" d="M161.94,131.48h-4.75c-0.21,0-0.38,0.25-0.38,0.46c0,0.21,0.17,0.38,0.38,0.38c0.46,0,0.81,0.07,1.02,0.21
			c0.18,0.12,0.29,0.29,0.33,0.52c0.05,0.28,0,0.63-0.13,1.04c-0.14,0.45-0.37,0.97-0.67,1.55l-0.76,1.46l-1.48-2.9
			c-0.25-0.46-0.41-0.83-0.45-1.1c-0.04-0.21-0.03-0.36,0.04-0.47c0.07-0.1,0.19-0.17,0.37-0.21c0.25-0.06,0.57-0.09,0.96-0.09
			c0.1,0,0.2-0.08,0.27-0.15c0.07-0.07,0.11-0.21,0.11-0.31c0-0.21-0.17-0.38-0.38-0.38h-6.44c-0.21,0-0.38,0.25-0.38,0.46
			c0,0.21,0.17,0.38,0.38,0.38c0.28,0,0.52,0.02,0.71,0.06c0.15,0.04,0.3,0.12,0.45,0.25c0.17,0.15,0.34,0.37,0.52,0.65
			c0.2,0.31,0.44,0.73,0.74,1.27l2.21,4v5.79c0,0.53-0.02,0.96-0.05,1.27c-0.04,0.33-0.11,0.5-0.16,0.58
			c-0.04,0.06-0.11,0.13-0.29,0.17c-0.21,0.04-0.51,0.07-0.9,0.07c-0.21,0-0.38,0.17-0.38,0.38v0.09c0,0.21,0.17,0.38,0.38,0.38h5.6
			c0.21,0,0.38-0.25,0.38-0.46s-0.17-0.38-0.38-0.38c-0.38,0-0.67-0.02-0.89-0.07c-0.21-0.04-0.28-0.14-0.3-0.17
			c-0.05-0.08-0.13-0.25-0.16-0.58c-0.04-0.32-0.05-0.74-0.05-1.27v-6.18l1.14-2.17c0.27-0.51,0.55-0.99,0.85-1.44
			c0.29-0.44,0.6-0.84,0.91-1.18c0.3-0.33,0.6-0.59,0.9-0.77c0.27-0.17,0.53-0.26,0.76-0.28c0.2-0.01,0.36-0.26,0.36-0.46
			C162.32,131.65,162.15,131.48,161.94,131.48z"/>
		<path class="st3" d="M92.86,154.38c-0.04,0.02-0.1,0.04-0.23,0.04H81.8c-0.21,0-0.38,0.17-0.38,0.38v0.11
			c0,0.21,0.17,0.38,0.38,0.38c0.68,0,1.03,0.09,1.2,0.16c0.21,0.09,0.36,0.21,0.44,0.37c0.1,0.19,0.15,0.46,0.16,0.78
			c0.01,0.38,0.01,0.82,0.01,1.35v12.18c0,0.52,0,0.97-0.01,1.35c-0.01,0.32-0.06,0.58-0.16,0.78c-0.08,0.16-0.23,0.29-0.44,0.37
			c-0.17,0.07-0.52,0.16-1.2,0.16c-0.21,0-0.38,0.17-0.38,0.38v0.11c0,0.21,0.17,0.38,0.38,0.38h7.67c0.21,0,0.38-0.17,0.38-0.38
			v-0.11c0-0.21-0.17-0.38-0.38-0.38c-0.69,0-1.24-0.02-1.63-0.05c-0.31-0.03-0.53-0.11-0.66-0.23c-0.13-0.13-0.21-0.36-0.25-0.68
			c-0.04-0.4-0.06-0.97-0.06-1.69v-7c0.34,0,0.69,0.01,1.03,0.02c0.43,0.02,0.82,0.09,1.17,0.23c0.32,0.12,0.57,0.32,0.77,0.59
			c0.19,0.27,0.29,0.68,0.29,1.23c0,0.21,0.17,0.38,0.38,0.38h0.1c0.21,0,0.38-0.17,0.38-0.38v-5.01c0-0.21-0.17-0.38-0.38-0.38
			h-0.1c-0.21,0-0.38,0.17-0.38,0.38c0,0.43-0.07,0.78-0.2,1.04c-0.13,0.26-0.3,0.46-0.52,0.61c-0.23,0.16-0.51,0.26-0.82,0.32
			c-0.34,0.07-0.72,0.1-1.11,0.1h-0.6v-4.31c0-0.52,0-0.97,0.01-1.35c0.01-0.32,0.06-0.59,0.16-0.79c0.08-0.17,0.22-0.29,0.43-0.37
			c0.18-0.07,0.53-0.15,1.21-0.15h0.58c0.56,0,1.05,0.13,1.46,0.39c0.43,0.27,0.8,0.62,1.09,1.04c0.3,0.43,0.54,0.92,0.71,1.46
			c0.17,0.53,0.28,1.07,0.31,1.61c0.01,0.2,0.18,0.35,0.38,0.35h0.1c0.1,0,0.2-0.04,0.27-0.12c0.07-0.08,0.11-0.18,0.1-0.28
			l-0.26-5.03C93.42,154.44,93.09,154.27,92.86,154.38z"/>
		<path class="st3" d="M106.91,167.92h-0.1c-0.2,0-0.36,0.15-0.38,0.35c-0.03,0.52-0.14,1.05-0.31,1.6
			c-0.17,0.54-0.41,1.03-0.71,1.47c-0.3,0.42-0.66,0.77-1.09,1.04c-0.41,0.26-0.9,0.39-1.46,0.39c-0.73,0-1.31-0.01-1.74-0.03
			c-0.34-0.01-0.59-0.09-0.73-0.21c-0.14-0.12-0.24-0.35-0.28-0.67c-0.06-0.39-0.09-0.98-0.09-1.75v-7c0.34,0,0.69,0.01,1.03,0.02
			c0.43,0.02,0.82,0.09,1.17,0.23c0.32,0.12,0.57,0.32,0.76,0.59c0.19,0.27,0.29,0.68,0.29,1.23c0,0.21,0.17,0.38,0.38,0.38h0.1
			c0.21,0,0.38-0.17,0.38-0.38v-5.01c0-0.21-0.17-0.38-0.38-0.38h-0.1c-0.21,0-0.38,0.17-0.38,0.38c0,0.43-0.07,0.78-0.2,1.04
			c-0.13,0.26-0.3,0.46-0.52,0.61c-0.23,0.16-0.5,0.26-0.82,0.32c-0.35,0.07-0.72,0.1-1.11,0.1h-0.6v-4.31
			c0-0.52,0.01-0.97,0.01-1.35c0.01-0.32,0.06-0.59,0.16-0.79c0.08-0.17,0.22-0.28,0.43-0.37c0.17-0.07,0.52-0.15,1.21-0.15h0.58
			c0.56,0,1.05,0.13,1.46,0.39c0.43,0.27,0.8,0.62,1.09,1.04c0.3,0.43,0.54,0.92,0.72,1.46c0.17,0.53,0.28,1.08,0.31,1.61
			c0.01,0.2,0.18,0.35,0.38,0.35h0.1c0.1,0,0.2-0.04,0.27-0.12c0.07-0.08,0.11-0.18,0.1-0.28l-0.26-5.03
			c-0.01-0.26-0.34-0.43-0.57-0.32c-0.05,0.03-0.13,0.04-0.23,0.04H94.95c-0.21,0-0.38,0.17-0.38,0.38v0.11
			c0,0.21,0.17,0.38,0.38,0.38c0.68,0,1.03,0.09,1.2,0.16c0.21,0.09,0.36,0.21,0.44,0.37c0.1,0.2,0.15,0.46,0.16,0.78
			c0.01,0.38,0.01,0.83,0.01,1.35v12.18c0,0.52-0.01,0.97-0.01,1.35c-0.01,0.32-0.06,0.58-0.16,0.77c-0.08,0.16-0.23,0.29-0.44,0.38
			c-0.17,0.07-0.52,0.16-1.2,0.16c-0.21,0-0.38,0.17-0.38,0.38v0.11c0,0.21,0.17,0.38,0.38,0.38h11.7c0.2,0,0.37-0.16,0.38-0.36
			l0.26-4.96c0.01-0.1-0.03-0.2-0.1-0.28C107.12,167.96,107.02,167.92,106.91,167.92z"/>
		<path class="st3" d="M118.74,164.48c-0.6-0.65-1.27-1.3-1.99-1.94c-0.69-0.61-1.34-1.24-1.93-1.89c-0.58-0.64-1.07-1.3-1.46-1.98
			c-0.37-0.64-0.56-1.34-0.56-2.08c0-0.29,0.06-0.52,0.18-0.69c0.13-0.19,0.3-0.33,0.5-0.44c0.22-0.12,0.47-0.19,0.75-0.24
			c0.82-0.13,1.58-0.08,2.1,0.23c0.35,0.21,0.63,0.48,0.86,0.81c0.23,0.34,0.4,0.73,0.51,1.16c0.12,0.44,0.17,0.9,0.17,1.35
			c0,0.44-0.06,0.93-0.19,1.46c-0.11,0.48-0.32,0.85-0.64,1.14c-0.11,0.1-0.13,0.34-0.08,0.48c0.05,0.16,0.21,0.26,0.38,0.25
			c0.52-0.04,0.98-0.19,1.39-0.44c0.4-0.24,0.75-0.56,1.03-0.94c0.28-0.37,0.5-0.79,0.65-1.24c0.15-0.45,0.23-0.91,0.23-1.37
			c0-0.72-0.16-1.34-0.46-1.84c-0.3-0.5-0.7-0.9-1.19-1.21c-0.48-0.29-1.02-0.51-1.61-0.64c-1.23-0.27-2.51-0.25-3.7,0.03
			c-0.65,0.15-1.24,0.4-1.77,0.74c-0.54,0.35-0.98,0.8-1.3,1.35c-0.33,0.56-0.5,1.24-0.5,2.03c0,0.82,0.21,1.59,0.63,2.28
			c0.4,0.65,0.91,1.29,1.5,1.9c0.58,0.59,1.22,1.19,1.89,1.77c0.65,0.57,1.27,1.18,1.84,1.81c0.55,0.62,1.02,1.31,1.4,2.03
			c0.36,0.7,0.54,1.49,0.54,2.36c0,0.73-0.22,1.25-0.66,1.6c-0.47,0.37-1.05,0.55-1.76,0.55c-0.51,0-0.96-0.09-1.36-0.27
			c-0.4-0.18-0.74-0.42-1.01-0.72c-0.27-0.3-0.49-0.67-0.64-1.09c-0.15-0.42-0.23-0.89-0.23-1.39c0-0.53,0.1-1.07,0.29-1.61
			c0.19-0.51,0.49-0.95,0.89-1.29c0.09-0.07,0.13-0.18,0.13-0.29v-0.13c0-0.21-0.19-0.37-0.39-0.37l-0.22-0.03
			c-0.54,0-1.05,0.1-1.51,0.31c-0.46,0.2-0.86,0.48-1.2,0.83c-0.34,0.35-0.61,0.77-0.8,1.24c-0.19,0.48-0.29,0.98-0.29,1.5
			c0,0.81,0.2,1.5,0.58,2.05c0.37,0.53,0.86,0.96,1.44,1.28c0.57,0.32,1.21,0.55,1.89,0.67c0.67,0.13,1.32,0.19,1.94,0.19
			c0.7,0,1.4-0.09,2.08-0.26c0.7-0.18,1.34-0.46,1.89-0.83c0.57-0.38,1.04-0.88,1.39-1.48c0.36-0.61,0.54-1.33,0.54-2.15
			c0-0.87-0.22-1.7-0.66-2.45C119.87,165.85,119.35,165.15,118.74,164.48z"/>
		<path class="st3" d="M133.29,154.38c-0.04,0.02-0.1,0.04-0.23,0.04h-9.88c-0.1,0-0.18-0.01-0.23-0.04
			c-0.23-0.12-0.56,0.06-0.57,0.32l-0.26,5.03c-0.01,0.1,0.03,0.2,0.1,0.28c0.07,0.07,0.17,0.12,0.27,0.12h0.11
			c0.2,0,0.36-0.16,0.38-0.35c0.03-0.53,0.14-1.07,0.31-1.61c0.17-0.53,0.41-1.02,0.72-1.46c0.29-0.42,0.66-0.77,1.09-1.04
			c0.4-0.25,0.86-0.38,1.4-0.39v14.83c0,0.52,0,0.97-0.01,1.35c-0.01,0.32-0.06,0.59-0.16,0.79c-0.08,0.17-0.22,0.29-0.43,0.36
			c-0.25,0.1-0.66,0.15-1.21,0.15c-0.21,0-0.38,0.17-0.38,0.38v0.11c0,0.21,0.17,0.38,0.38,0.38h6.88c0.21,0,0.38-0.17,0.38-0.38
			v-0.11c0-0.21-0.17-0.38-0.38-0.38c-0.55,0-0.96-0.05-1.21-0.15c-0.21-0.08-0.35-0.2-0.43-0.37c-0.1-0.2-0.15-0.47-0.16-0.79
			c-0.01-0.37-0.01-0.82-0.01-1.35v-14.82c0.48,0.04,0.91,0.15,1.28,0.34c0.47,0.24,0.86,0.56,1.16,0.96
			c0.32,0.41,0.57,0.9,0.74,1.44c0.18,0.56,0.29,1.14,0.32,1.74c0.01,0.2,0.18,0.36,0.38,0.36h0.11c0.1,0,0.2-0.04,0.27-0.12
			c0.07-0.08,0.11-0.18,0.1-0.28l-0.26-5.03C133.84,154.44,133.52,154.27,133.29,154.38z"/>
	</g>
</g>
<g id="Layer_3">
	<g>
		<path class="st3" d="M30.51,119.52c-1.37-0.66-2.88-0.82-4.25-0.47c-0.14,0-1.26-0.02-1.83-0.62c-0.22-0.23-0.44-0.48-0.67-0.73
			c-0.03-0.04-0.07-0.07-0.1-0.11c0.18-0.19,0.36-0.39,0.54-0.57c0.59-0.59,1.73-0.59,1.85-0.58c1.36,0.38,2.87,0.25,4.26-0.37
			c2.89-1.3,4.36-4.34,3.26-6.79c-1.1-2.45-4.34-3.38-7.24-2.08c-2.33,1.04-3.79,3.27-3.59,5.45c-0.01,0.04-0.01,0.08,0,0.12
			c0,0.02,0.24,1.7-1.24,2.84c-1.6-0.96-5.2-2.34-8.04-1.61c-2.43,0.63-3.3,1.4-3.33,1.43c-0.09,0.09-0.13,0.22-0.08,0.34l0.1,0.27
			c0.03,0.09,0.11,0.16,0.2,0.19l4.29,1.33l-4.56,1.29c-0.09,0.03-0.17,0.1-0.21,0.19l-0.11,0.27c-0.05,0.12-0.02,0.25,0.08,0.34
			c0.04,0.03,0.89,0.82,3.3,1.51c0.62,0.18,1.28,0.25,1.95,0.25c2.56,0,5.23-1.09,6.38-1.81c0.04,0.02,0.09,0.05,0.12,0.07
			c1.57,1.17,1.29,2.89,1.27,2.96c-0.01,0.04-0.01,0.08,0,0.11c-0.26,2.18,1.15,4.45,3.45,5.55c0.92,0.44,1.89,0.65,2.82,0.65
			c1.94,0,3.69-0.92,4.47-2.56C34.76,123.97,33.37,120.89,30.51,119.52z M29.68,121.26c1.84,0.88,2.76,2.78,2.07,4.24
			c-0.33,0.69-0.98,1.19-1.84,1.39c-0.88,0.21-1.86,0.09-2.76-0.34c-0.9-0.43-1.61-1.11-1.99-1.93c-0.38-0.79-0.4-1.61-0.07-2.31
			c0.46-0.96,1.51-1.49,2.7-1.49C28.4,120.82,29.05,120.96,29.68,121.26z M25.28,110.89c0.38-0.76,1.06-1.38,1.92-1.77
			c0.55-0.25,1.13-0.37,1.69-0.37c0.31,0,0.62,0.04,0.91,0.12c0.8,0.21,1.4,0.69,1.69,1.35c0.29,0.66,0.25,1.42-0.12,2.16
			c-0.38,0.76-1.06,1.38-1.92,1.77c-0.85,0.38-1.78,0.48-2.6,0.26c-0.8-0.21-1.4-0.69-1.69-1.35
			C24.87,112.39,24.91,111.62,25.28,110.89z"/>
		<path class="st3" d="M72.04,112.93c0.07,0.06,0.15,0.09,0.23,0.1c0.09,0,0.18-0.03,0.25-0.09l10.71-9.6
			c0.07-0.06,0.11-0.16,0.12-0.25l0.05-1.28c0.01-0.14-0.07-0.28-0.2-0.34c-0.04-0.02-0.09-0.03-0.14-0.03
			c-0.09,0-0.18,0.03-0.25,0.09l-9.91,8.49l0.03-0.91l10.37-8.59c0.08-0.07,0.12-0.18,0.12-0.29c-0.01-0.11-0.06-0.21-0.15-0.27
			L68.92,89.65c-0.06-0.04-0.13-0.06-0.19-0.07c-0.07,0-0.14,0.01-0.2,0.05l-10.64,6.52c-0.1,0.06-0.17,0.17-0.17,0.29l-0.1,2.75
			c0,0.1,0.04,0.2,0.11,0.27L72.04,112.93z"/>
		<path class="st3" d="M12.34,110.4c0.43,0,1.6-0.99,1.98-1.41c0.16-0.18,0.45-0.45,0.61-0.73l7.27-12.62
			c0.24-0.41,0.19-0.89-0.11-1.06l-1.73-0.93c-0.3-0.17-0.74,0.02-0.98,0.43l-7.27,12.62c-0.16,0.28-0.29,0.66-0.33,0.89
			c-0.1,0.63-0.13,2.18,0.09,2.55C11.92,110.24,12.21,110.4,12.34,110.4z"/>
		<path class="st3" d="M23.58,92.77c0.58-0.57,0.6-1.5,0.03-2.09c-0.57-0.58-1.5-0.6-2.09-0.03c-0.58,0.57-0.6,1.5-0.03,2.09
			C22.06,93.32,22.99,93.34,23.58,92.77z"/>
		<path class="st3" d="M59.29,114.44l-17.04-0.19c-1.85-0.05-3.35,1.39-3.38,3.14l-0.11,8.62c-0.01,0.82,0.31,1.6,0.89,2.2
			c0.62,0.63,1.5,1,2.41,1.01l17.04,0.19c0.01,0,0.03,0,0.04,0c1.82,0,3.31-1.4,3.34-3.14l0.11-8.62c0.01-0.82-0.31-1.6-0.89-2.2
			C61.08,114.82,60.2,114.45,59.29,114.44z M60.7,126.98l-5.08-4.68l5.4-4.42l-0.11,8.37C60.91,126.52,60.83,126.76,60.7,126.98z
			 M42.24,115.81l17.04,0.19c0.41,0,0.79,0.14,1.1,0.38l-7.4,6.06c-1.28,1.05-3.35,1.03-4.6-0.05l-7.25-6.22
			c0.3-0.22,0.68-0.35,1.09-0.35C42.22,115.81,42.23,115.81,42.24,115.81z M40.48,126.66c-0.09-0.2-0.15-0.41-0.15-0.64l0.11-8.38
			l5.27,4.53L40.48,126.66z M59.12,127.85l-17.04-0.19c-0.1,0-0.21-0.02-0.31-0.03l5.14-4.4l0.43,0.37c0.93,0.8,2.15,1.21,3.36,1.21
			c1.17,0,2.34-0.38,3.26-1.13l0.43-0.35l4.91,4.52c-0.06,0-0.11,0.01-0.17,0.01C59.14,127.85,59.13,127.85,59.12,127.85z"/>
		<path class="st3" d="M46.21,101.8c0.97,0.53,2.07,0.32,2.78-0.52c0.53-0.62,0.79-1.38,0.86-2.17c0.81,0.29,1.5,0.87,1.93,1.61
			c-1.46,0.02-2.82,0.6-3.16,2.13c-0.26,1.15,0.58,2.3,1.58,2.79c1.01,0.49,2.15,0.18,2.87-0.65c0.54-0.62,0.81-1.35,0.88-2.11
			c0.71,0.38,1.31,0.95,1.69,1.63c-0.35,0.03-0.69,0.1-1.03,0.22c-1.01,0.36-2.01,1.15-2.07,2.31c-0.05,1.15,0.91,2.29,1.98,2.64
			c1.06,0.34,2.09-0.2,2.65-1.11c0.39-0.62,0.59-1.27,0.64-1.93c0.18,0.1,0.37,0.2,0.53,0.33c0.28,0.22,0.35,0.24,0.37,0.57
			c0.05,0.99-0.78,1.92-1.54,2.44c-0.9,0.62-0.05,2.1,0.86,1.47c1.21-0.83,2.21-2.05,2.36-3.56c0.14-1.37-0.71-2.24-1.89-2.82
			c-0.3-0.15-0.63-0.27-0.96-0.37c-0.44-1.3-1.39-2.47-2.58-3.18c-0.35-0.21-0.78-0.39-1.25-0.53c-0.4-1.28-1.28-2.45-2.38-3.1
			c-0.46-0.27-1.04-0.47-1.68-0.6c-0.31-1.07-0.96-2.03-1.91-2.59c-0.95-0.56-1.81,0.92-0.86,1.47c0.42,0.25,0.74,0.6,0.95,1.01
			c-1.22,0.1-2.35,0.57-2.91,1.58C44.31,99.95,45.17,101.22,46.21,101.8z M54.62,107.77c-0.43-0.41-0.48-0.79,0.01-1.15
			c0.41-0.3,0.95-0.41,1.47-0.41C56.09,107.07,55.62,108.73,54.62,107.77z M50.47,103.73c-0.76-0.97,0.93-1.32,1.79-1.32
			C52.23,103.38,51.44,104.97,50.47,103.73z M46.45,99.6c0.1-0.17,0.34-0.31,0.53-0.4c0.36-0.17,0.77-0.25,1.17-0.29
			c-0.02,0.18-0.05,0.35-0.1,0.53c-0.26,0.94-0.94,1.4-1.56,0.38C46.4,99.66,46.4,99.69,46.45,99.6z"/>
		<path class="st3" d="M83.61,116.54c0.02-0.17-0.03-0.33-0.13-0.46l-2.74-3.45c-0.22-0.27-0.61-0.32-0.88-0.1l-1.81,1.44l0,0
			l-0.91,0.72l-10.75,8.53c0,0,0,0,0,0c-0.01,0-0.01,0.01-0.01,0.02c-0.07,0.06-0.12,0.14-0.16,0.22c-0.01,0.01-0.02,0.02-0.02,0.03
			l-1.49,3.99c-0.08,0.21-0.04,0.44,0.1,0.61c0.12,0.15,0.3,0.24,0.49,0.24c0.03,0,0.05,0,0.08-0.01l4.23-0.54
			c0.01,0,0.02-0.01,0.03-0.01c0.09-0.02,0.18-0.05,0.26-0.11c0,0,0.01,0,0.01-0.01c0,0,0,0,0.01,0l9.25-7.34l0,0l1.5-1.19
			l2.72-2.16C83.51,116.86,83.59,116.71,83.61,116.54z M67.66,123.82l8.76-6.95l0.3,0.38l-8.76,6.95L67.66,123.82z M67.14,126.84
			l-0.58-0.73l0.42-1.13l1.36,1.71L67.14,126.84z M69.62,126.29l-0.31-0.38l8.76-6.95l0.31,0.38L69.62,126.29z M80.79,117.42
			l-1.96-2.47l1.32-1.05l1.96,2.47L80.79,117.42z"/>
		<path class="st3" d="M27.97,103.19c0.18,1.03,1.06,1.77,2.1,1.77c0.01,0,0.01,0,0.02,0l9.44-0.07c1.05-0.01,1.93-0.77,2.09-1.8
			l0.93-6.04c0.1-0.62-0.08-1.25-0.49-1.72c-0.41-0.47-0.99-0.74-1.61-0.74c-0.01,0-0.01,0-0.02,0l-11.4,0.09
			c-0.63,0-1.21,0.28-1.62,0.76c-0.4,0.48-0.57,1.11-0.47,1.73L27.97,103.19z M28.37,96.24c0.16-0.2,0.41-0.31,0.66-0.31l11.4-0.09
			c0.26-0.02,0.5,0.11,0.67,0.3c0.17,0.2,0.24,0.45,0.2,0.71l-0.93,6.04c-0.07,0.43-0.43,0.74-0.86,0.74l-9.44,0.07c0,0,0,0-0.01,0
			c-0.43,0-0.79-0.31-0.86-0.73l-1.03-6.03C28.13,96.69,28.2,96.43,28.37,96.24z"/>
		<path class="st3" d="M31.24,103.01l7.1-0.05c0.55,0,1.02-0.32,1.11-0.75l0.71-3.56c0.11-0.54-0.43-1.02-1.12-1.02l-8.58,0.07
			c-0.7,0.01-1.22,0.5-1.11,1.03l0.77,3.55C30.21,102.7,30.68,103.01,31.24,103.01z"/>
		<path class="st3" d="M29.76,93.23c0.22,0.21,0.5,0.33,0.81,0.33c0,0,0.01,0,0.01,0l7.67-0.06c0,0,0,0,0,0
			c0.31,0,0.6-0.12,0.81-0.34c0.22-0.22,0.33-0.51,0.33-0.82l-0.01-1.11c0-0.31-0.12-0.6-0.34-0.81c-0.22-0.21-0.5-0.33-0.81-0.33
			c0,0-0.01,0-0.01,0l-7.67,0.06c-0.64,0.01-1.15,0.53-1.14,1.16l0.01,1.11C29.42,92.72,29.54,93.01,29.76,93.23z"/>
	</g>
	<g>
		<path class="st3" d="M93.67,106.48c0.43,0.24,0.92,0.41,1.44,0.51c0.51,0.1,1,0.15,1.47,0.15c0.53,0,1.06-0.07,1.58-0.2
			c0.53-0.14,1.02-0.35,1.44-0.63c0.43-0.29,0.79-0.67,1.06-1.13c0.27-0.46,0.41-1.02,0.41-1.64c0-0.66-0.17-1.29-0.5-1.87
			c-0.32-0.55-0.71-1.08-1.18-1.59c-0.46-0.5-0.97-0.99-1.51-1.47c-0.53-0.46-1.02-0.94-1.46-1.43c-0.43-0.48-0.8-0.98-1.1-1.49
			c-0.28-0.48-0.42-1-0.42-1.56c0-0.21,0.04-0.38,0.13-0.51c0.1-0.14,0.22-0.24,0.37-0.32c0.16-0.08,0.35-0.14,0.55-0.18
			c0.61-0.1,1.18-0.07,1.57,0.17c0.26,0.15,0.47,0.36,0.64,0.6c0.17,0.25,0.3,0.55,0.38,0.87c0.09,0.33,0.13,0.67,0.13,1.02
			c0,0.33-0.05,0.7-0.14,1.09c-0.08,0.35-0.24,0.64-0.47,0.85c-0.09,0.08-0.11,0.27-0.07,0.39c0.05,0.14,0.18,0.22,0.32,0.21
			c0.39-0.03,0.75-0.14,1.07-0.33c0.3-0.19,0.57-0.43,0.79-0.72c0.21-0.28,0.38-0.6,0.49-0.94c0.12-0.34,0.18-0.7,0.18-1.05
			c0-0.55-0.12-1.02-0.35-1.41c-0.23-0.38-0.54-0.69-0.91-0.92c-0.36-0.22-0.77-0.39-1.22-0.49c-0.94-0.21-1.9-0.19-2.81,0.02
			c-0.49,0.11-0.94,0.3-1.34,0.56c-0.41,0.26-0.75,0.61-1,1.03c-0.25,0.43-0.38,0.95-0.38,1.54c0,0.63,0.16,1.21,0.48,1.74
			c0.3,0.5,0.69,0.98,1.14,1.44c0.45,0.45,0.93,0.9,1.43,1.34c0.49,0.43,0.96,0.89,1.39,1.37c0.42,0.47,0.77,0.98,1.05,1.53
			c0.27,0.53,0.4,1.12,0.4,1.77c0,0.54-0.16,0.93-0.49,1.19c-0.35,0.28-0.78,0.41-1.31,0.41c-0.38,0-0.72-0.07-1.02-0.2
			c-0.3-0.13-0.55-0.32-0.75-0.54c-0.2-0.23-0.36-0.5-0.48-0.81c-0.11-0.32-0.17-0.67-0.17-1.04c0-0.4,0.07-0.8,0.22-1.21
			c0.14-0.38,0.36-0.71,0.66-0.96c0.07-0.06,0.11-0.15,0.11-0.24v-0.1c0-0.17-0.15-0.31-0.32-0.31l-0.17-0.02
			c-0.41,0-0.8,0.08-1.15,0.24c-0.35,0.16-0.65,0.37-0.91,0.63c-0.26,0.27-0.47,0.59-0.61,0.95c-0.15,0.36-0.22,0.75-0.22,1.14
			c0,0.62,0.15,1.15,0.45,1.57C92.86,105.91,93.23,106.24,93.67,106.48z"/>
		<path class="st3" d="M110.94,106.73v-0.08c0-0.17-0.14-0.31-0.31-0.31c-0.41,0-0.72-0.04-0.9-0.11c-0.15-0.06-0.25-0.14-0.31-0.26
			c-0.07-0.15-0.11-0.35-0.12-0.59c-0.01-0.28-0.01-0.62-0.01-1.02V93.2c0.35,0.03,0.66,0.12,0.93,0.25
			c0.35,0.18,0.64,0.42,0.87,0.72c0.24,0.31,0.42,0.67,0.56,1.08c0.14,0.42,0.22,0.86,0.24,1.3c0.01,0.17,0.15,0.3,0.31,0.3h0.08
			c0.09,0,0.17-0.04,0.23-0.1c0.06-0.06,0.09-0.15,0.09-0.23l-0.2-3.8c-0.01-0.22-0.28-0.36-0.47-0.27
			c-0.03,0.01-0.07,0.03-0.16,0.03h-7.47c-0.09,0-0.14-0.02-0.16-0.03c-0.19-0.09-0.46,0.05-0.47,0.26l-0.2,3.8
			c0,0.09,0.03,0.17,0.09,0.23c0.06,0.06,0.14,0.1,0.23,0.1h0.08c0.17,0,0.3-0.13,0.31-0.29c0.02-0.4,0.1-0.8,0.23-1.21
			c0.13-0.4,0.31-0.77,0.54-1.09c0.22-0.32,0.49-0.58,0.82-0.78c0.29-0.18,0.63-0.28,1.01-0.29v11.18c0,0.39,0,0.73-0.01,1.02
			c-0.01,0.24-0.05,0.44-0.12,0.59c-0.06,0.12-0.16,0.2-0.31,0.26c-0.19,0.07-0.49,0.11-0.9,0.11c-0.17,0-0.31,0.14-0.31,0.31v0.08
			c0,0.17,0.14,0.31,0.31,0.31h5.2C110.8,107.04,110.94,106.9,110.94,106.73z"/>
		<path class="st3" d="M124.2,106.73v-0.08c0-0.17-0.14-0.31-0.31-0.31c-0.33,0-0.59-0.05-0.77-0.14c-0.18-0.09-0.31-0.21-0.41-0.37
			c-0.11-0.17-0.19-0.39-0.24-0.64c-0.06-0.29-0.13-0.6-0.21-0.93l-2.63-12.03c-0.03-0.14-0.16-0.25-0.31-0.25h-0.08
			c-0.11,0-0.21,0.06-0.26,0.15c-0.17,0.27-0.38,0.54-0.63,0.79c-0.24,0.24-0.5,0.45-0.78,0.6c-0.1,0.06-0.16,0.16-0.16,0.27
			c0,0.02,0,0.07,0.01,0.15c0.01,0.08,0.02,0.17,0.05,0.28l0.06,0.22c0.01,0.02,0.01,0.04,0.01,0.05l-1.78,7.93
			c-0.07,0.31-0.15,0.69-0.25,1.17c-0.1,0.45-0.23,0.9-0.4,1.32c-0.17,0.41-0.38,0.76-0.63,1.06c-0.22,0.25-0.49,0.37-0.82,0.37
			c-0.17,0-0.31,0.14-0.31,0.31v0.08c0,0.17,0.14,0.31,0.31,0.31h3.8c0.17,0,0.31-0.14,0.31-0.31v-0.08c0-0.17-0.14-0.31-0.31-0.31
			c-0.5,0-0.85-0.12-1.05-0.35c-0.21-0.25-0.31-0.62-0.31-1.11c0-0.36,0.04-0.73,0.1-1.09c0.06-0.29,0.12-0.58,0.19-0.87h2.91
			c0.09,0.39,0.18,0.79,0.28,1.19c0.11,0.46,0.17,0.92,0.17,1.36c0,0.23-0.04,0.4-0.11,0.51c-0.08,0.11-0.17,0.19-0.29,0.23l0,0
			c-0.16,0.06-0.33,0.09-0.53,0.1c-0.22,0.01-0.45,0.02-0.68,0.02c-0.17,0-0.31,0.14-0.31,0.31v0.08c0,0.17,0.14,0.31,0.31,0.31
			h5.74C124.06,107.04,124.2,106.9,124.2,106.73z M116.57,102.17l1.33-5.97l1.26,5.97H116.57z"/>
		<path class="st3" d="M133.58,92.42h-0.02c-0.05,0-0.1,0.01-0.14,0.03c-0.03,0.01-0.07,0.03-0.16,0.03h-7.47
			c-0.09,0-0.14-0.02-0.16-0.03c-0.19-0.1-0.46,0.05-0.47,0.26l-0.2,3.8c0,0.09,0.03,0.17,0.09,0.23c0.06,0.06,0.14,0.1,0.23,0.1
			h0.08c0.17,0,0.3-0.13,0.31-0.29c0.02-0.39,0.1-0.8,0.23-1.21c0.13-0.4,0.31-0.77,0.54-1.09c0.22-0.31,0.49-0.58,0.81-0.78
			c0.29-0.18,0.62-0.28,1.01-0.29v11.18c0,0.39,0,0.73-0.01,1.02c-0.01,0.24-0.05,0.44-0.12,0.59c-0.06,0.12-0.15,0.2-0.31,0.26
			c-0.13,0.05-0.39,0.11-0.9,0.11c-0.17,0-0.31,0.14-0.31,0.31v0.08c0,0.17,0.14,0.31,0.31,0.31h5.2c0.17,0,0.31-0.14,0.31-0.31
			v-0.08c0-0.17-0.14-0.31-0.31-0.31c-0.52,0-0.77-0.06-0.91-0.11c-0.15-0.06-0.25-0.14-0.31-0.26c-0.07-0.15-0.11-0.35-0.12-0.59
			c-0.01-0.28-0.01-0.62-0.01-1.02V93.2c0.35,0.03,0.66,0.12,0.93,0.25c0.35,0.18,0.64,0.42,0.87,0.72
			c0.24,0.31,0.42,0.67,0.56,1.08c0.14,0.42,0.22,0.86,0.24,1.3c0.01,0.17,0.15,0.3,0.31,0.3h0.08c0.09,0,0.17-0.04,0.23-0.1
			c0.06-0.06,0.09-0.15,0.09-0.23l-0.2-3.8C133.89,92.55,133.75,92.42,133.58,92.42z"/>
		<path class="st3" d="M136.57,107.04h5.2c0.17,0,0.31-0.14,0.31-0.31v-0.08c0-0.17-0.14-0.31-0.31-0.31c-0.51,0-0.77-0.06-0.9-0.12
			c-0.15-0.06-0.26-0.15-0.32-0.27c-0.07-0.14-0.11-0.34-0.12-0.57c-0.01-0.28-0.01-0.62-0.01-1.02v-9.2c0-0.4,0-0.73,0.01-1.02
			c0.01-0.24,0.04-0.43,0.12-0.57c0.06-0.12,0.16-0.2,0.32-0.27c0.13-0.05,0.39-0.12,0.9-0.12c0.17,0,0.31-0.14,0.31-0.31v-0.08
			c0-0.17-0.14-0.31-0.31-0.31h-5.2c-0.17,0-0.31,0.14-0.31,0.31v0.08c0,0.17,0.14,0.31,0.31,0.31c0.51,0,0.77,0.06,0.9,0.12
			c0.15,0.06,0.26,0.15,0.32,0.27c0.07,0.14,0.11,0.34,0.12,0.57c0.01,0.28,0.01,0.62,0.01,1.02v9.2c0,0.39,0,0.73-0.01,1.02
			c-0.01,0.24-0.05,0.43-0.12,0.57c-0.06,0.12-0.16,0.21-0.32,0.27c-0.13,0.05-0.39,0.12-0.9,0.12c-0.17,0-0.31,0.14-0.31,0.31v0.08
			C136.26,106.9,136.4,107.04,136.57,107.04z"/>
		<path class="st3" d="M154.67,94.79c-0.5-0.7-1.14-1.28-1.89-1.71c-0.76-0.44-1.67-0.66-2.68-0.66c-1.02,0-1.92,0.22-2.69,0.66
			c-0.75,0.43-1.39,1.01-1.89,1.71c-0.5,0.7-0.87,1.49-1.11,2.37c-0.24,0.87-0.36,1.75-0.36,2.64c0,0.89,0.12,1.77,0.36,2.63
			c0.24,0.87,0.62,1.66,1.11,2.35c0.5,0.7,1.14,1.27,1.89,1.7c0.76,0.44,1.66,0.66,2.68,0.66c1.02,0,1.92-0.22,2.69-0.66
			c0.75-0.43,1.39-1,1.89-1.7c0.5-0.69,0.87-1.48,1.11-2.35c0.24-0.86,0.36-1.74,0.36-2.63c0-0.89-0.12-1.78-0.36-2.64
			C155.54,96.28,155.17,95.49,154.67,94.79z M147.97,105.37c-0.24-0.34-0.45-0.73-0.62-1.16c-0.17-0.45-0.31-0.9-0.4-1.37
			c-0.1-0.47-0.17-0.93-0.21-1.37c-0.05-0.44-0.07-0.84-0.07-1.19c0-0.39,0.03-0.84,0.08-1.34c0.05-0.51,0.13-1.04,0.24-1.57
			c0.11-0.53,0.26-1.06,0.45-1.58c0.19-0.5,0.42-0.96,0.7-1.35c0.27-0.38,0.59-0.7,0.95-0.93c0.35-0.23,0.74-0.34,1.2-0.34
			c0.42,0,0.78,0.09,1.09,0.28c0.32,0.2,0.6,0.46,0.84,0.78c0.24,0.34,0.45,0.73,0.62,1.16c0.17,0.45,0.31,0.91,0.4,1.37
			c0.1,0.47,0.17,0.93,0.21,1.37c0.05,0.44,0.07,0.84,0.07,1.19c0,0.39-0.02,0.84-0.07,1.35c-0.05,0.5-0.13,1.03-0.24,1.57
			c-0.11,0.53-0.27,1.06-0.46,1.58c-0.18,0.5-0.41,0.96-0.69,1.35c-0.27,0.38-0.59,0.7-0.95,0.93c-0.35,0.23-0.75,0.34-1.22,0.34
			c-0.42,0-0.79-0.09-1.09-0.28C148.48,105.96,148.2,105.69,147.97,105.37z"/>
		<path class="st3" d="M168.99,92.48h-3.41c-0.17,0-0.31,0.14-0.31,0.31v0.08c0,0.17,0.14,0.31,0.31,0.31
			c0.33,0,0.57,0.12,0.74,0.37c0.2,0.3,0.35,0.67,0.44,1.1c0.1,0.44,0.15,0.9,0.15,1.35c0.01,0.48,0.01,0.86,0.01,1.15v3.98
			l-4.53-8.49c-0.05-0.1-0.16-0.17-0.28-0.17h-3.5c-0.17,0-0.31,0.14-0.31,0.31v0.08c0,0.17,0.14,0.31,0.31,0.31
			c0.4,0,0.7,0.04,0.89,0.12c0.16,0.06,0.27,0.15,0.32,0.27c0.07,0.14,0.11,0.34,0.12,0.58c0.01,0.29,0.01,0.63,0.01,1.01v7.21
			c0,0.29,0,0.67-0.01,1.15c-0.01,0.46-0.06,0.91-0.15,1.35c-0.09,0.42-0.24,0.79-0.44,1.1c-0.17,0.25-0.4,0.37-0.73,0.37
			c-0.17,0-0.31,0.14-0.31,0.31v0.08c0,0.17,0.14,0.31,0.31,0.31h3.41c0.17,0,0.31-0.14,0.31-0.31v-0.08c0-0.17-0.14-0.31-0.31-0.31
			c-0.33,0-0.57-0.12-0.74-0.37c-0.2-0.3-0.35-0.67-0.44-1.1c-0.1-0.45-0.15-0.9-0.15-1.35c-0.01-0.48-0.01-0.86-0.01-1.15v-7.59
			l6.28,12.12c0.05,0.1,0.16,0.17,0.28,0.17h0.1c0.17,0,0.31-0.14,0.31-0.31v-9.6c0-0.29,0-0.67,0.01-1.15
			c0.01-0.45,0.06-0.91,0.15-1.35c0.09-0.42,0.24-0.79,0.44-1.1c0.17-0.25,0.4-0.37,0.73-0.37c0.17,0,0.31-0.14,0.31-0.31v-0.08
			C169.3,92.62,169.16,92.48,168.99,92.48z"/>
		<path class="st3" d="M180.02,102.67h-0.08c-0.17,0-0.3,0.13-0.31,0.29c-0.02,0.38-0.1,0.79-0.23,1.2
			c-0.13,0.41-0.31,0.78-0.54,1.1c-0.22,0.32-0.49,0.58-0.82,0.78c-0.31,0.2-0.67,0.29-1.09,0.29c-0.55,0-0.99-0.01-1.31-0.02
			c-0.25-0.01-0.43-0.06-0.53-0.15c-0.1-0.09-0.17-0.26-0.21-0.49c-0.04-0.29-0.07-0.74-0.07-1.32V99.1c0.25,0,0.5,0.01,0.75,0.02
			c0.32,0.01,0.61,0.07,0.87,0.17c0.24,0.09,0.42,0.23,0.57,0.44c0.14,0.2,0.21,0.51,0.21,0.91c0,0.17,0.14,0.31,0.31,0.31h0.08
			c0.17,0,0.31-0.14,0.31-0.31v-3.78c0-0.17-0.14-0.31-0.31-0.31h-0.08c-0.17,0-0.31,0.14-0.31,0.31c0,0.32-0.05,0.58-0.15,0.78
			c-0.1,0.19-0.22,0.34-0.38,0.45c-0.17,0.11-0.38,0.2-0.61,0.24c-0.26,0.05-0.54,0.07-0.84,0.07h-0.42v-3.23
			c0-0.4,0-0.73,0.01-1.02c0.01-0.24,0.05-0.44,0.12-0.59c0.06-0.12,0.16-0.2,0.31-0.26c0.13-0.05,0.39-0.11,0.9-0.11h0.44
			c0.42,0,0.78,0.1,1.09,0.29c0.32,0.2,0.6,0.47,0.82,0.78c0.23,0.33,0.41,0.69,0.54,1.09c0.13,0.4,0.21,0.81,0.23,1.21
			c0.01,0.17,0.15,0.29,0.31,0.29h0.08c0.09,0,0.17-0.04,0.23-0.1c0.06-0.06,0.09-0.15,0.09-0.23l-0.2-3.8
			c-0.01-0.22-0.28-0.36-0.47-0.27c-0.03,0.01-0.07,0.03-0.16,0.03h-8.18c-0.17,0-0.31,0.14-0.31,0.31v0.08
			c0,0.17,0.14,0.31,0.31,0.31c0.51,0,0.77,0.06,0.9,0.12c0.15,0.06,0.26,0.15,0.32,0.27c0.07,0.14,0.11,0.34,0.12,0.57
			c0.01,0.28,0.01,0.62,0.01,1.02v9.2c0,0.39,0,0.73-0.01,1.02c-0.01,0.24-0.05,0.43-0.12,0.57c-0.06,0.12-0.16,0.21-0.32,0.27
			c-0.13,0.05-0.39,0.12-0.9,0.12c-0.17,0-0.31,0.14-0.31,0.31v0.08c0,0.17,0.14,0.31,0.31,0.31h8.84c0.17,0,0.3-0.13,0.31-0.3
			l0.2-3.74c0-0.09-0.03-0.17-0.09-0.23C180.19,102.71,180.11,102.67,180.02,102.67z"/>
		<path class="st3" d="M193.25,106.34c-0.41,0.02-0.7-0.09-0.86-0.33c-0.2-0.3-0.34-0.69-0.42-1.16c-0.08-0.5-0.14-1.06-0.17-1.67
			c-0.03-0.64-0.11-1.26-0.24-1.84c-0.14-0.6-0.37-1.14-0.7-1.59c-0.15-0.21-0.33-0.38-0.55-0.52c0.09-0.03,0.18-0.07,0.26-0.1
			c0.42-0.18,0.79-0.42,1.09-0.72c0.31-0.3,0.55-0.66,0.72-1.08c0.17-0.41,0.25-0.89,0.25-1.4c0-0.49-0.08-0.95-0.25-1.36
			c-0.17-0.41-0.4-0.78-0.7-1.09c-0.3-0.31-0.66-0.55-1.08-0.73c-0.42-0.18-0.88-0.26-1.37-0.26h-6.43c-0.17,0-0.31,0.14-0.31,0.31
			v0.08c0,0.17,0.14,0.31,0.31,0.31c0.33,0,0.59,0.02,0.78,0.07c0.15,0.04,0.27,0.1,0.35,0.18c0.08,0.08,0.13,0.2,0.16,0.36
			c0.04,0.2,0.06,0.46,0.06,0.77v10.4c0,0.31-0.02,0.57-0.06,0.77c-0.03,0.16-0.08,0.28-0.16,0.36c-0.08,0.08-0.19,0.14-0.34,0.18
			c-0.19,0.05-0.45,0.07-0.78,0.07c-0.17,0-0.31,0.14-0.31,0.31v0.08c0,0.17,0.14,0.31,0.31,0.31h5.2c0.17,0,0.31-0.14,0.31-0.31
			v-0.08c0-0.17-0.14-0.31-0.31-0.31c-0.33,0-0.6-0.02-0.78-0.07c-0.15-0.04-0.27-0.1-0.35-0.18c-0.08-0.08-0.13-0.2-0.16-0.36
			c-0.04-0.2-0.06-0.46-0.06-0.77v-10.4c0-0.31,0.02-0.57,0.06-0.77c0.03-0.16,0.08-0.28,0.16-0.36c0.08-0.08,0.19-0.14,0.35-0.18
			c0.19-0.05,0.45-0.07,0.78-0.07h0.4c0.31,0,0.56,0.07,0.76,0.21c0.21,0.15,0.39,0.35,0.53,0.59c0.14,0.25,0.24,0.52,0.3,0.82
			c0.06,0.31,0.1,0.61,0.1,0.89c0,0.33-0.04,0.68-0.13,1.05c-0.09,0.36-0.22,0.7-0.4,1c-0.17,0.29-0.39,0.54-0.65,0.73
			c-0.25,0.18-0.55,0.28-0.9,0.29h-0.6c-0.17,0-0.31,0.14-0.31,0.31v0.08c0,0.09,0.04,0.17,0.1,0.23c0.06,0.06,0.15,0.08,0.23,0.09
			c0.38-0.02,0.67,0.04,0.86,0.19c0.21,0.16,0.37,0.4,0.48,0.69c0.12,0.33,0.21,0.71,0.26,1.13l0.17,1.41
			c0.06,0.5,0.15,0.99,0.25,1.45c0.11,0.5,0.31,0.95,0.59,1.35c0.28,0.4,0.66,0.73,1.14,0.97c0.47,0.25,1.09,0.37,1.83,0.37h0.26
			c0.17,0,0.31-0.14,0.31-0.31v-0.08c0-0.09-0.03-0.17-0.1-0.23C193.42,106.36,193.33,106.33,193.25,106.34z"/>
		<path class="st3" d="M205.95,92.48h-4.4c-0.17,0-0.31,0.14-0.31,0.31v0.08c0,0.17,0.14,0.31,0.31,0.31c0.44,0,0.76,0.07,0.96,0.2
			c0.18,0.12,0.28,0.28,0.32,0.51c0.04,0.26,0,0.59-0.12,0.98c-0.13,0.42-0.34,0.9-0.63,1.44l-0.73,1.41l-1.4-2.75
			c-0.24-0.43-0.38-0.78-0.43-1.03c-0.04-0.2-0.02-0.35,0.04-0.46c0.07-0.1,0.19-0.17,0.37-0.21c0.23-0.05,0.53-0.08,0.89-0.08
			c0.17,0,0.31-0.14,0.31-0.31v-0.08c0-0.17-0.14-0.31-0.31-0.31h-5.97c-0.17,0-0.31,0.14-0.31,0.31v0.08
			c0,0.17,0.14,0.31,0.31,0.31c0.27,0,0.49,0.02,0.67,0.06c0.15,0.04,0.29,0.11,0.43,0.24c0.16,0.14,0.32,0.34,0.49,0.61
			c0.18,0.29,0.41,0.68,0.69,1.18l2.05,3.71v5.38c0,0.48-0.02,0.88-0.05,1.18c-0.03,0.32-0.1,0.48-0.16,0.56
			c-0.04,0.06-0.11,0.14-0.29,0.18c-0.19,0.04-0.48,0.06-0.84,0.06c-0.17,0-0.31,0.14-0.31,0.31v0.08c0,0.17,0.14,0.31,0.31,0.31
			h5.2c0.17,0,0.31-0.14,0.31-0.31v-0.08c0-0.17-0.14-0.31-0.31-0.31c-0.35,0-0.63-0.02-0.83-0.06c-0.19-0.04-0.26-0.12-0.3-0.18
			c-0.05-0.08-0.13-0.24-0.16-0.56c-0.03-0.29-0.05-0.69-0.05-1.18v-5.74l1.06-2.02c0.25-0.47,0.51-0.92,0.79-1.34
			c0.28-0.42,0.56-0.79,0.85-1.1c0.28-0.3,0.56-0.55,0.84-0.72c0.26-0.16,0.5-0.25,0.72-0.26c0.17-0.01,0.3-0.15,0.3-0.31v-0.08
			C206.26,92.62,206.12,92.48,205.95,92.48z"/>
		<path class="st3" d="M102.88,111.43h-0.02c-0.05,0-0.1,0.01-0.14,0.03c-0.04,0.02-0.1,0.04-0.22,0.04h-10
			c-0.17,0-0.31,0.14-0.31,0.31v0.1c0,0.17,0.14,0.31,0.31,0.31c0.51,0,0.89,0.05,1.12,0.15c0.21,0.09,0.34,0.2,0.42,0.36
			c0.09,0.19,0.14,0.43,0.15,0.73c0.01,0.35,0.01,0.76,0.01,1.25v11.24c0,0.48,0,0.9-0.01,1.25c-0.01,0.3-0.06,0.55-0.15,0.73
			c-0.08,0.16-0.22,0.28-0.42,0.36c-0.24,0.1-0.61,0.15-1.12,0.15c-0.17,0-0.31,0.14-0.31,0.31v0.1c0,0.17,0.14,0.31,0.31,0.31h7.08
			c0.17,0,0.31-0.14,0.31-0.31v-0.1c0-0.17-0.14-0.31-0.31-0.31c-0.64,0-1.14-0.02-1.51-0.05c-0.3-0.03-0.51-0.1-0.63-0.23
			c-0.13-0.13-0.21-0.34-0.24-0.65c-0.04-0.37-0.06-0.89-0.06-1.56v-6.5c0.33,0,0.66,0.01,0.99,0.02c0.4,0.02,0.77,0.09,1.09,0.21
			c0.3,0.12,0.54,0.3,0.72,0.56c0.18,0.25,0.27,0.64,0.27,1.16c0,0.17,0.14,0.31,0.31,0.31h0.1c0.17,0,0.31-0.14,0.31-0.31v-4.62
			c0-0.17-0.14-0.31-0.31-0.31h-0.1c-0.17,0-0.31,0.14-0.31,0.31c0,0.4-0.06,0.73-0.19,0.98c-0.12,0.25-0.28,0.43-0.49,0.57
			c-0.21,0.15-0.47,0.25-0.77,0.3c-0.32,0.06-0.67,0.09-1.04,0.09h-0.59v-4.02c0-0.48,0-0.9,0.01-1.25c0.01-0.3,0.06-0.55,0.15-0.75
			c0.08-0.16,0.21-0.28,0.41-0.35c0.24-0.09,0.62-0.14,1.13-0.14h0.54c0.52,0,0.98,0.12,1.37,0.36c0.4,0.25,0.74,0.58,1.02,0.97
			c0.28,0.4,0.51,0.86,0.66,1.35c0.16,0.5,0.26,1,0.29,1.49c0.01,0.17,0.15,0.29,0.31,0.29h0.1c0.09,0,0.17-0.03,0.23-0.1
			c0.06-0.06,0.09-0.15,0.09-0.23l-0.24-4.65C103.18,111.56,103.04,111.43,102.88,111.43z"/>
		<path class="st3" d="M117.58,123.97h-0.1c-0.17,0-0.3,0.13-0.31,0.29c-0.03,0.47-0.13,0.97-0.29,1.48
			c-0.16,0.5-0.38,0.96-0.66,1.36c-0.28,0.39-0.62,0.72-1.02,0.97c-0.38,0.24-0.84,0.37-1.37,0.37c-0.68,0-1.21-0.01-1.61-0.02
			c-0.32-0.01-0.55-0.08-0.69-0.2c-0.14-0.12-0.23-0.33-0.27-0.64c-0.05-0.36-0.08-0.91-0.08-1.62v-6.5c0.33,0,0.66,0.01,0.99,0.02
			c0.4,0.02,0.77,0.09,1.09,0.21c0.3,0.12,0.54,0.3,0.72,0.56c0.18,0.25,0.27,0.64,0.27,1.16c0,0.17,0.14,0.31,0.31,0.31h0.1
			c0.17,0,0.31-0.14,0.31-0.31v-4.62c0-0.17-0.14-0.31-0.31-0.31h-0.1c-0.17,0-0.31,0.14-0.31,0.31c0,0.4-0.06,0.73-0.19,0.98
			c-0.12,0.25-0.28,0.43-0.49,0.57c-0.21,0.15-0.47,0.25-0.77,0.3c-0.32,0.06-0.67,0.09-1.04,0.09h-0.59v-4.02
			c0-0.48,0-0.9,0.01-1.25c0.01-0.3,0.06-0.55,0.15-0.75c0.08-0.16,0.21-0.28,0.41-0.35c0.24-0.09,0.62-0.14,1.13-0.14h0.53
			c0.52,0,0.98,0.12,1.37,0.36c0.4,0.25,0.74,0.58,1.02,0.97c0.28,0.4,0.51,0.86,0.67,1.35c0.16,0.5,0.26,1,0.29,1.49
			c0.01,0.17,0.15,0.29,0.31,0.29h0.1c0.09,0,0.17-0.03,0.23-0.1c0.06-0.06,0.09-0.15,0.09-0.23l-0.24-4.65
			c-0.01-0.22-0.29-0.36-0.48-0.26c-0.04,0.02-0.1,0.04-0.22,0.04h-10c-0.17,0-0.31,0.14-0.31,0.31v0.1c0,0.17,0.14,0.31,0.31,0.31
			c0.51,0,0.89,0.05,1.12,0.15c0.21,0.09,0.34,0.2,0.42,0.36c0.09,0.19,0.14,0.43,0.15,0.73c0.01,0.35,0.01,0.76,0.01,1.25v11.24
			c0,0.48,0,0.9-0.01,1.25c-0.01,0.3-0.06,0.55-0.15,0.73c-0.08,0.16-0.22,0.28-0.42,0.36c-0.24,0.1-0.61,0.15-1.12,0.15
			c-0.17,0-0.31,0.14-0.31,0.31v0.1c0,0.17,0.14,0.31,0.31,0.31h10.81c0.17,0,0.3-0.13,0.31-0.3l0.24-4.58
			c0-0.09-0.03-0.17-0.09-0.23C117.74,124,117.66,123.97,117.58,123.97z"/>
		<path class="st3" d="M130.37,120.78c-0.56-0.61-1.17-1.21-1.84-1.79c-0.65-0.57-1.25-1.16-1.79-1.75
			c-0.54-0.59-0.99-1.21-1.35-1.83c-0.34-0.6-0.52-1.25-0.52-1.94c0-0.27,0.06-0.49,0.17-0.66c0.13-0.18,0.28-0.31,0.47-0.41
			c0.2-0.11,0.44-0.18,0.7-0.23c0.75-0.13,1.47-0.08,1.97,0.22c0.32,0.19,0.59,0.45,0.8,0.76c0.21,0.32,0.37,0.68,0.48,1.08
			c0.11,0.42,0.16,0.84,0.16,1.26c0,0.41-0.06,0.87-0.18,1.35c-0.11,0.45-0.31,0.81-0.6,1.07c-0.1,0.09-0.1,0.29-0.06,0.41
			c0.05,0.13,0.19,0.23,0.32,0.21c0.47-0.04,0.9-0.17,1.27-0.4c0.37-0.22,0.68-0.51,0.94-0.86c0.25-0.34,0.45-0.72,0.59-1.13
			c0.14-0.41,0.21-0.84,0.21-1.26c0-0.66-0.14-1.22-0.42-1.68c-0.28-0.45-0.64-0.83-1.09-1.1c-0.43-0.27-0.93-0.47-1.47-0.59
			c-1.14-0.25-2.31-0.23-3.4,0.03c-0.59,0.14-1.14,0.36-1.62,0.68c-0.49,0.32-0.9,0.73-1.19,1.23c-0.3,0.51-0.46,1.13-0.46,1.85
			c0,0.75,0.2,1.45,0.58,2.09c0.37,0.6,0.83,1.19,1.38,1.75c0.53,0.54,1.12,1.09,1.75,1.64c0.6,0.52,1.17,1.08,1.7,1.68
			c0.51,0.57,0.95,1.21,1.3,1.88c0.33,0.65,0.5,1.39,0.5,2.19c0,0.68-0.2,1.18-0.62,1.51c-0.44,0.34-0.99,0.52-1.64,0.52
			c-0.47,0-0.9-0.09-1.27-0.25c-0.37-0.17-0.69-0.39-0.94-0.68c-0.25-0.29-0.45-0.63-0.6-1.02c-0.14-0.39-0.21-0.83-0.21-1.29
			c0-0.5,0.09-1,0.27-1.5c0.18-0.49,0.45-0.88,0.83-1.21c0.07-0.06,0.11-0.15,0.11-0.24v-0.12c0-0.17-0.16-0.31-0.33-0.31l-0.2-0.03
			c-0.5,0-0.96,0.1-1.38,0.28c-0.42,0.19-0.78,0.44-1.1,0.76c-0.31,0.32-0.56,0.7-0.73,1.13c-0.18,0.43-0.27,0.9-0.27,1.37
			c0,0.75,0.18,1.38,0.53,1.87c0.34,0.48,0.79,0.88,1.32,1.17c0.52,0.29,1.11,0.5,1.74,0.62c0.62,0.12,1.22,0.18,1.79,0.18
			c0.64,0,1.28-0.08,1.91-0.24c0.64-0.16,1.23-0.42,1.74-0.76c0.52-0.35,0.95-0.8,1.28-1.36c0.33-0.56,0.49-1.22,0.49-1.97
			c0-0.8-0.2-1.56-0.6-2.25C131.41,122.04,130.93,121.39,130.37,120.78z"/>
		<path class="st3" d="M145.9,111.43h-0.02c-0.05,0-0.1,0.01-0.14,0.03c-0.04,0.02-0.1,0.04-0.22,0.04h-9.13
			c-0.12,0-0.19-0.02-0.22-0.04c-0.19-0.1-0.47,0.05-0.48,0.26l-0.24,4.65c0,0.09,0.03,0.17,0.09,0.23c0.06,0.06,0.14,0.1,0.23,0.1
			h0.1c0.17,0,0.3-0.13,0.31-0.29c0.03-0.49,0.13-0.99,0.29-1.49c0.16-0.49,0.38-0.95,0.66-1.35c0.27-0.39,0.62-0.72,1.02-0.97
			c0.38-0.24,0.83-0.36,1.35-0.36v13.73c0,0.48,0,0.9-0.01,1.25c-0.01,0.3-0.06,0.55-0.15,0.75c-0.08,0.16-0.21,0.28-0.41,0.35
			c-0.24,0.09-0.62,0.14-1.13,0.14c-0.17,0-0.31,0.14-0.31,0.31v0.1c0,0.17,0.14,0.31,0.31,0.31h6.35c0.17,0,0.31-0.14,0.31-0.31
			v-0.1c0-0.17-0.14-0.31-0.31-0.31c-0.51,0-0.89-0.05-1.13-0.14c-0.2-0.08-0.33-0.19-0.41-0.35c-0.09-0.19-0.14-0.45-0.15-0.75
			c-0.01-0.35-0.01-0.76-0.01-1.25v-13.72c0.47,0.03,0.88,0.14,1.24,0.32c0.44,0.22,0.8,0.53,1.08,0.9
			c0.29,0.38,0.53,0.84,0.69,1.34c0.17,0.51,0.27,1.05,0.3,1.61c0.01,0.17,0.15,0.3,0.31,0.3h0.1c0.09,0,0.17-0.03,0.23-0.1
			c0.06-0.06,0.09-0.15,0.09-0.23l-0.24-4.65C146.21,111.56,146.07,111.43,145.9,111.43z"/>
	</g>
</g>
</svg>
